<?xml version="1.0" encoding="UTF-8" standalone="no"?><!DOCTYPE svg PUBLIC "-//W3C//DTD SVG 1.1//EN" "http://www.w3.org/Graphics/SVG/1.1/DTD/svg11.dtd"><svg width="100%" height="100%" viewBox="0 0 2827 1074" version="1.1" xmlns="http://www.w3.org/2000/svg" xmlns:xlink="http://www.w3.org/1999/xlink" xml:space="preserve" xmlns:serif="http://www.serif.com/" style="fill-rule:evenodd;clip-rule:evenodd;stroke-linejoin:round;stroke-miterlimit:2;"><rect id="Artboard1" x="0" y="0" width="2826.22" height="1073" style="fill:none;"/><g id="Artboard11" serif:id="Artboard1"><path d="M273.309,697.79c-19.785,0 -37.409,-4.036 -52.873,-12.109c-15.464,-8.074 -27.573,-19.273 -36.329,-33.6c-8.755,-14.327 -13.133,-30.587 -13.133,-48.78c0,-18.42 4.378,-34.737 13.133,-48.95c8.756,-14.213 20.865,-25.356 36.329,-33.43c15.464,-8.073 33.088,-12.109 52.873,-12.109c19.33,-0 36.158,4.036 50.485,12.109c14.327,8.074 24.902,19.615 31.724,34.624l-41.275,22.172c-4.776,-8.641 -10.745,-15.009 -17.908,-19.102c-7.164,-4.094 -14.953,-6.14 -23.367,-6.14c-9.096,-0 -17.283,2.046 -24.56,6.14c-7.277,4.093 -13.02,9.892 -17.227,17.397c-4.207,7.504 -6.31,16.601 -6.31,27.289c-0,10.688 2.103,19.785 6.31,27.289c4.207,7.505 9.95,13.304 17.227,17.397c7.277,4.094 15.464,6.14 24.56,6.14c8.414,0 16.203,-1.99 23.367,-5.969c7.163,-3.98 13.132,-10.404 17.908,-19.273l41.275,22.513c-6.822,14.782 -17.397,26.209 -31.724,34.283c-14.327,8.073 -31.155,12.109 -50.485,12.109Z" style="fill:#333436;fill-rule:nonzero;"/><path d="M471.157,697.79c-19.558,0 -36.898,-4.093 -52.021,-12.28c-15.122,-8.187 -27.062,-19.387 -35.817,-33.6c-8.755,-14.213 -13.133,-30.416 -13.133,-48.609c0,-18.42 4.378,-34.737 13.133,-48.95c8.755,-14.213 20.695,-25.356 35.817,-33.43c15.123,-8.073 32.463,-12.109 52.021,-12.109c19.329,-0 36.613,4.036 51.849,12.109c15.237,8.074 27.176,19.16 35.817,33.259c8.642,14.1 12.963,30.473 12.963,49.121c-0,18.193 -4.321,34.396 -12.963,48.609c-8.641,14.213 -20.58,25.413 -35.817,33.6c-15.236,8.187 -32.52,12.28 -51.849,12.28Zm-0,-43.663c8.869,0 16.828,-2.046 23.878,-6.14c7.049,-4.093 12.621,-9.949 16.714,-17.567c4.094,-7.619 6.14,-16.658 6.14,-27.119c0,-10.688 -2.046,-19.785 -6.14,-27.289c-4.093,-7.505 -9.665,-13.304 -16.714,-17.397c-7.05,-4.094 -15.009,-6.14 -23.878,-6.14c-8.869,-0 -16.829,2.046 -23.879,6.14c-7.049,4.093 -12.678,9.892 -16.885,17.397c-4.207,7.504 -6.31,16.601 -6.31,27.289c-0,10.461 2.103,19.5 6.31,27.119c4.207,7.618 9.836,13.474 16.885,17.567c7.05,4.094 15.01,6.14 23.879,6.14Z" style="fill:#333436;fill-rule:nonzero;"/><rect x="607.262" y="441.953" width="53.214" height="253.108" style="fill:#333436;fill-rule:nonzero;"/><rect x="709.938" y="441.953" width="53.214" height="253.108" style="fill:#333436;fill-rule:nonzero;"/><path d="M852.547,618.31c1.101,4.844 2.856,9.335 5.265,13.474c4.434,7.618 10.688,13.417 18.761,17.397c8.073,3.98 17.568,5.97 28.483,5.97c9.779,-0 18.364,-1.478 25.755,-4.435c7.391,-2.956 14.156,-7.391 20.296,-13.303l28.313,30.7c-8.414,9.551 -18.989,16.885 -31.724,22.002c-12.735,5.117 -27.403,7.675 -44.004,7.675c-20.922,0 -39.285,-4.093 -55.09,-12.28c-15.805,-8.187 -28.029,-19.387 -36.67,-33.6c-8.642,-14.213 -12.963,-30.416 -12.963,-48.609c0,-18.42 4.264,-34.737 12.792,-48.95c8.528,-14.213 20.183,-25.356 34.965,-33.43c14.781,-8.073 31.496,-12.109 50.144,-12.109c17.965,-0 34.168,3.809 48.609,11.427c14.44,7.618 25.868,18.534 34.282,32.747c8.414,14.214 12.621,31.213 12.621,50.997c0,2.047 -0.114,4.378 -0.341,6.993c-0.227,2.615 -0.455,5.06 -0.682,7.334l-138.812,0Zm-0.66,-31.041l90.378,-0c0.437,2.928 -0,-0 -0,-0c-0.863,-5.782 -2.578,-11.012 -5.144,-15.692c-3.866,-7.05 -9.21,-12.564 -16.032,-16.544c-6.822,-3.98 -14.782,-5.969 -23.878,-5.969c-9.097,-0 -17.113,1.989 -24.049,5.969c-6.936,3.98 -12.337,9.551 -16.203,16.715c-2.498,4.628 -4.188,9.801 -5.072,15.521Z" style="fill:#333436;"/><path d="M1116.55,697.79c-19.784,0 -37.409,-4.036 -52.873,-12.109c-15.464,-8.074 -27.573,-19.273 -36.328,-33.6c-8.756,-14.327 -13.133,-30.587 -13.133,-48.78c-0,-18.42 4.377,-34.737 13.133,-48.95c8.755,-14.213 20.864,-25.356 36.328,-33.43c15.464,-8.073 33.089,-12.109 52.873,-12.109c19.33,-0 36.159,4.036 50.486,12.109c14.327,8.074 24.901,19.615 31.723,34.624l-41.275,22.172c-4.775,-8.641 -10.745,-15.009 -17.908,-19.102c-7.164,-4.094 -14.952,-6.14 -23.367,-6.14c-9.096,-0 -17.283,2.046 -24.56,6.14c-7.277,4.093 -13.019,9.892 -17.226,17.397c-4.208,7.504 -6.311,16.601 -6.311,27.289c-0,10.688 2.103,19.785 6.311,27.289c4.207,7.505 9.949,13.304 17.226,17.397c7.277,4.094 15.464,6.14 24.56,6.14c8.415,0 16.203,-1.99 23.367,-5.969c7.163,-3.98 13.133,-10.404 17.908,-19.273l41.275,22.513c-6.822,14.782 -17.396,26.209 -31.723,34.283c-14.327,8.073 -31.156,12.109 -50.486,12.109Z" style="fill:#333436;fill-rule:nonzero;"/><path d="M1238.67,556.568l-28.313,0l0,-40.934l28.313,0l0,-44.686l53.214,-0l0,44.686l45.71,0l-0,40.934l-45.71,0l0,74.705c0,7.732 2.047,13.701 6.14,17.908c4.094,4.207 9.665,6.311 16.715,6.311c8.414,-0 15.578,-2.274 21.49,-6.823l14.327,37.523c-5.458,3.866 -11.996,6.766 -19.614,8.699c-7.618,1.933 -15.521,2.899 -23.708,2.899c-21.604,0 -38.432,-5.515 -50.485,-16.544c-12.053,-11.029 -18.079,-27.46 -18.079,-49.291l0,-75.387Z" style="fill:#333436;"/><path d="M1430.85,643.894l-21.279,51.167l-56.625,0l106.428,-238.781l54.579,-0l106.769,238.781l-57.99,0l-21.195,-51.167l-110.687,-0Zm55.451,-133.343l-38.003,91.386l75.858,-0l-37.855,-91.386Z" style="fill:#333436;"/><path d="M1700.88,628.544l0,66.517l-55.26,0l-0,-238.781l103.358,-0c21.376,-0 39.797,3.468 55.261,10.404c15.464,6.936 27.403,16.885 35.817,29.848c8.414,12.962 12.621,28.426 12.621,46.391c0,17.738 -4.207,33.032 -12.621,45.881c-8.414,12.848 -20.353,22.684 -35.817,29.506c-0.156,0.069 -0.312,0.137 -0.468,0.205l53.341,76.546l-59.696,0l-45.84,-66.534c-0.861,0.011 -1.727,0.017 -2.598,0.017l-48.098,-0Zm0,-44.004l45.028,-0c17.056,-0 29.791,-3.696 38.205,-11.087c8.414,-7.391 12.621,-17.567 12.621,-30.53c0,-13.189 -4.207,-23.423 -12.621,-30.7c-8.414,-7.277 -21.149,-10.916 -38.205,-10.916l-45.028,0l0,83.233Z" style="fill:#333436;"/><circle cx="2323.71" cy="569.701" r="154.454" style="fill:#f9bb20;"/><circle cx="2323.71" cy="569.701" r="87.716" style="fill:#fcd986;"/><path d="M2329.97,438.942c-3.869,-2.233 -8.635,-2.233 -12.504,0c-15.914,9.188 -58.453,33.748 -83.299,48.093c-3.868,2.233 -6.252,6.361 -6.252,10.828c0,4.468 2.384,8.595 6.252,10.829c24.846,14.345 67.385,38.904 83.299,48.093c3.869,2.233 8.635,2.233 12.504,-0c15.915,-9.189 58.453,-33.748 83.299,-48.093c3.868,-2.234 6.252,-6.361 6.252,-10.829c-0,-4.467 -2.384,-8.595 -6.252,-10.828c-24.846,-14.345 -67.384,-38.905 -83.299,-48.093Z" style="fill:#333436;"/><path d="M2315.45,581.936c0,-4.468 -2.383,-8.596 -6.252,-10.829c-15.914,-9.188 -58.452,-33.748 -83.299,-48.093c-3.868,-2.234 -8.635,-2.234 -12.503,0c-3.869,2.234 -6.252,6.361 -6.252,10.829l-0,96.185c-0,4.467 2.383,8.595 6.252,10.828c15.914,9.189 58.453,33.748 83.299,48.093c3.868,2.234 8.635,2.234 12.503,0c3.869,-2.233 6.252,-6.361 6.252,-10.828l0,-96.185Z" style="fill:#333436;"/><path d="M2434.06,640.87c3.868,-2.233 6.251,-6.362 6.251,-10.828l0,-96.239c0,-4.467 -2.383,-8.595 -6.251,-10.829c-3.869,-2.233 -8.636,-2.233 -12.504,0c-24.857,14.351 -67.424,38.928 -83.345,48.119c-3.869,2.234 -6.252,6.362 -6.252,10.829l-0,96.239c-0,4.467 2.383,8.595 6.252,10.828c3.869,2.234 8.635,2.234 12.503,0c24.858,-14.351 67.425,-38.927 83.346,-48.119Z" style="fill:#333436;"/><path d="M2111.15,429.453l35.602,35.602l-80.888,80.888c-6.3,6.301 -9.84,14.847 -9.84,23.758c0,8.911 3.54,17.458 9.84,23.758c0,0 39.277,39.277 63.092,63.092c4.72,4.72 7.372,11.121 7.372,17.796c-0,6.674 -2.652,13.076 -7.372,17.795c-0.003,0.004 -0.007,0.008 -0.011,0.012c-4.719,4.719 -11.121,7.371 -17.795,7.371c-6.675,-0 -13.076,-2.652 -17.796,-7.372c-23.815,-23.815 -63.092,-63.091 -63.092,-63.091c-15.742,-15.743 -24.587,-37.096 -24.587,-59.361c0,-22.265 8.845,-43.618 24.587,-59.36l80.888,-80.888Z" style="fill:#333436;"/><path d="M2206.99,805.782c-4.719,-4.72 -7.371,-11.121 -7.371,-17.796c0,-6.674 2.652,-13.076 7.371,-17.795c0.004,-0.004 0.008,-0.008 0.011,-0.012c4.72,-4.719 11.121,-7.371 17.796,-7.371c6.675,0 13.076,2.652 17.796,7.372c23.815,23.815 63.091,63.091 63.091,63.091c6.302,6.302 14.848,9.841 23.759,9.841c8.911,-0 17.457,-3.54 23.758,-9.841l80.888,-80.887l35.602,35.602l-80.888,80.888c-15.742,15.742 -37.096,24.587 -59.359,24.587c-22.265,0 -43.618,-8.844 -59.362,-24.587c0,-0 -39.277,-39.277 -63.092,-63.092Z" style="fill:#333436;"/><path d="M2547.72,709.949l-35.602,-35.602l80.887,-80.888c6.301,-6.301 9.841,-14.847 9.842,-23.758c-0.001,-8.911 -3.541,-17.457 -9.842,-23.758c0,-0 -39.277,-39.277 -63.092,-63.092c-4.719,-4.72 -7.371,-11.121 -7.371,-17.796c0,-6.674 2.652,-13.076 7.371,-17.795c0.004,-0.004 0.008,-0.008 0.011,-0.011c4.72,-4.72 11.121,-7.372 17.796,-7.372c6.674,0 13.076,2.652 17.795,7.372c23.815,23.815 63.092,63.092 63.092,63.092c15.744,15.743 24.588,37.097 24.589,59.36c-0.001,22.264 -8.845,43.617 -24.589,59.361l-80.887,80.887Z" style="fill:#333436;"/><path d="M2451.89,333.62c4.72,4.72 7.371,11.121 7.371,17.796c0,6.675 -2.651,13.076 -7.371,17.796c-0.003,0.003 -0.007,0.007 -0.011,0.011c-4.72,4.719 -11.121,7.371 -17.795,7.371c-6.675,-0 -13.076,-2.652 -17.796,-7.371c-23.815,-23.815 -63.092,-63.092 -63.092,-63.092c-6.301,-6.301 -14.847,-9.841 -23.758,-9.841c-8.911,-0 -17.457,3.54 -23.759,9.841l-80.887,80.887l-35.602,-35.602l80.887,-80.887c15.744,-15.744 37.097,-24.588 59.362,-24.588c22.263,0.001 43.617,8.845 59.359,24.588c0,-0 39.277,39.276 63.092,63.091Z" style="fill:#333436;"/></g></svg>