<?xml version="1.0" encoding="UTF-8" standalone="no"?><!DOCTYPE svg PUBLIC "-//W3C//DTD SVG 1.1//EN" "http://www.w3.org/Graphics/SVG/1.1/DTD/svg11.dtd"><svg width="100%" height="100%" viewBox="0 0 1073 1074" version="1.1" xmlns="http://www.w3.org/2000/svg" xmlns:xlink="http://www.w3.org/1999/xlink" xml:space="preserve" xmlns:serif="http://www.serif.com/" style="fill-rule:evenodd;clip-rule:evenodd;stroke-linecap:square;stroke-miterlimit:2;"><rect id="Artboard1" x="0" y="0" width="1072.92" height="1073" style="fill:none;"/><g id="Artboard11" serif:id="Artboard1"><circle cx="529.35" cy="536.502" r="191.765" style="fill:#f9bb20;"/><circle cx="529.35" cy="536.502" r="108.905" style="fill:#fcd986;"/><path d="M537.112,374.157c-4.803,-2.773 -10.721,-2.773 -15.524,-0c-19.759,11.407 -72.573,41.9 -103.421,59.709c-4.803,2.774 -7.762,7.898 -7.762,13.445c-0,5.546 2.959,10.671 7.762,13.444c30.848,17.811 83.662,48.303 103.421,59.711c4.803,2.773 10.721,2.773 15.524,-0c19.759,-11.408 72.573,-41.9 103.421,-59.711c4.803,-2.773 7.762,-7.898 7.762,-13.444c0,-5.547 -2.959,-10.671 -7.762,-13.445c-30.848,-17.809 -83.662,-48.302 -103.421,-59.709Z" style="fill:#333436;"/><path d="M519.084,551.692c-0,-5.546 -2.959,-10.672 -7.763,-13.444c-19.758,-11.408 -72.572,-41.901 -103.421,-59.711c-4.803,-2.773 -10.72,-2.773 -15.523,0c-4.804,2.773 -7.763,7.898 -7.763,13.445l0,119.42c0,5.546 2.959,10.671 7.763,13.444c19.758,11.408 72.573,41.9 103.421,59.711c4.803,2.773 10.72,2.773 15.523,-0c4.804,-2.774 7.763,-7.898 7.763,-13.445l-0,-119.42Z" style="fill:#333436;"/><path d="M666.353,624.863c4.803,-2.773 7.761,-7.899 7.761,-13.444l0,-119.487c0,-5.546 -2.958,-10.671 -7.761,-13.444c-4.803,-2.774 -10.722,-2.774 -15.525,-0c-30.862,17.817 -83.711,48.331 -103.478,59.743c-4.803,2.773 -7.762,7.898 -7.762,13.444l-0,119.487c-0,5.546 2.959,10.671 7.762,13.444c4.803,2.773 10.721,2.773 15.524,0c30.862,-17.818 83.712,-48.331 103.479,-59.743Z" style="fill:#333436;"/><path d="M265.443,362.375l44.202,44.203l-100.427,100.427c-7.823,7.822 -12.217,18.433 -12.217,29.497c-0,11.064 4.394,21.675 12.217,29.498c-0,-0 48.762,48.761 78.33,78.33c12.204,12.203 12.204,31.99 -0,44.194c-0.003,0.003 -0.006,0.005 -0.008,0.008c-12.204,12.204 -31.991,12.204 -44.195,-0c-29.568,-29.568 -78.329,-78.33 -78.329,-78.33c-19.546,-19.546 -30.527,-46.057 -30.527,-73.7c-0,-27.643 10.981,-54.154 30.527,-73.7l100.427,-100.427Z" style="fill:#333436;stroke:#333436;stroke-width:7.61px;"/><path d="M384.428,829.614c-12.204,-12.204 -12.204,-31.99 -0,-44.194c0.003,-0.003 0.005,-0.005 0.008,-0.008c12.204,-12.204 31.99,-12.204 44.194,-0c29.568,29.568 78.33,78.33 78.33,78.33c7.823,7.823 18.434,12.218 29.498,12.218c11.063,-0.001 21.674,-4.395 29.497,-12.218l100.427,-100.427l44.203,44.202l-100.427,100.427c-19.546,19.546 -46.057,30.527 -73.699,30.528c-27.643,-0 -54.155,-10.981 -73.701,-30.528c-0,0 -48.762,-48.762 -78.33,-78.33Z" style="fill:#333436;stroke:#333436;stroke-width:7.61px;"/><path d="M807.473,710.629l-44.203,-44.202l100.427,-100.427c7.824,-7.824 12.218,-18.434 12.219,-29.498c-0.001,-11.063 -4.395,-21.674 -12.219,-29.497c0,-0 -48.761,-48.762 -78.33,-78.33c-12.203,-12.204 -12.203,-31.991 0,-44.195c0.003,-0.002 0.006,-0.005 0.009,-0.008c12.204,-12.204 31.99,-12.204 44.194,0c29.568,29.568 78.33,78.33 78.33,78.33c19.546,19.547 30.527,46.059 30.528,73.7c-0.001,27.642 -10.982,54.154 -30.528,73.7l-100.427,100.427Z" style="fill:#333436;stroke:#333436;stroke-width:7.61px;"/><path d="M688.488,243.39c12.203,12.204 12.203,31.99 -0,44.194c-0.003,0.003 -0.006,0.006 -0.009,0.008c-12.204,12.204 -31.99,12.204 -44.194,0c-29.568,-29.568 -78.33,-78.33 -78.33,-78.33c-7.823,-7.823 -18.434,-12.217 -29.497,-12.218c-11.064,0 -21.675,4.395 -29.498,12.218l-100.427,100.427l-44.202,-44.202l100.427,-100.427c19.546,-19.547 46.058,-30.527 73.701,-30.527c27.642,0.001 54.153,10.981 73.699,30.527c-0,-0 48.761,48.762 78.33,78.33Z" style="fill:#333436;stroke:#333436;stroke-width:7.61px;"/></g></svg>