<?xml version="1.0" encoding="UTF-8" standalone="no"?><!DOCTYPE svg PUBLIC "-//W3C//DTD SVG 1.1//EN" "http://www.w3.org/Graphics/SVG/1.1/DTD/svg11.dtd"><svg width="100%" height="100%" viewBox="0 0 3090 1800" version="1.1" xmlns="http://www.w3.org/2000/svg" xmlns:xlink="http://www.w3.org/1999/xlink" xml:space="preserve" xmlns:serif="http://www.serif.com/" style="fill-rule:evenodd;clip-rule:evenodd;stroke-linejoin:round;stroke-miterlimit:2;"><rect id="Artboard1" x="0" y="0" width="3089.58" height="1800" style="fill:none;"/><clipPath id="_clip1"><rect id="Artboard11" serif:id="Artboard1" x="0" y="0" width="3089.58" height="1800"/></clipPath><g clip-path="url(#_clip1)"><g><g><path d="M3322.94,-21.848l-181.846,-0l-100.088,184.454l281.934,129.708l-0,-314.162Z" style="fill:#e2dcd5;fill-rule:nonzero;"/><path d="M3322.94,339.66l-785.725,-361.508l-33.55,-0l819.275,371.817l-0,-10.309Z" style="fill:#e2dcd5;fill-rule:nonzero;"/><path d="M3322.94,671.164c-6.042,0.809 -11.979,1.171 -17.613,1.188c-13.366,-0.196 -24.221,-1.471 -33.846,-5.975c-15.454,-7.75 -19.262,-8.296 -110.591,-56.642c-15.658,-8.3 -30.096,-11.408 -43.775,-11.408c-36.654,-0.608 -70.034,24.758 -88.167,42.233l143.65,73.396l150.342,146.146l-0,-188.938Z" style="fill:#e2dcd5;fill-rule:nonzero;"/><path d="M3322.94,461.302l-362.413,-163.471l-127.658,242.55l166.063,84.846c18.279,-19.863 60.437,-58.304 118.183,-59.187c18.712,-0.021 38.833,4.495 58.887,15.166c91.554,48.463 93.1,47.896 109.909,56.3c0.587,0.588 9.654,2.763 19.416,2.583c5.617,0.025 11.729,-0.508 17.613,-1.595l-0,-177.192Z" style="fill:#e2dcd5;fill-rule:nonzero;"/><path d="M2167.97,1473.64l211.067,-213.583l-413.913,-135.541l12.717,510.416l190.129,-161.292Z" style="fill:#e2dcd5;fill-rule:nonzero;"/><path d="M2421.05,54.506l-78.812,182.346l457.658,227.621l101.692,-193.225l-480.538,-216.742Z" style="fill:#e2dcd5;fill-rule:nonzero;"/><path d="M1529.58,701.323c123.013,15.175 255.604,31.887 372.358,46.725l-1.858,-74.567l-353.791,-33.467l-16.709,61.309Z" style="fill:#e2dcd5;fill-rule:nonzero;"/><path d="M2074.64,655.348l223.85,17.708l65.837,-42.587l-22.529,-44.292l-366.687,-608.025l-38.55,-0l16.625,667.587l88.091,6.976l47.259,-129.98l30.316,11.029l-44.212,121.584Z" style="fill:#e2dcd5;fill-rule:nonzero;"/><path d="M2391.63,41.231l-139.841,-63.079l-159.005,-0l111.109,218.379l108.85,27.2l78.887,-182.5Z" style="fill:#e2dcd5;fill-rule:nonzero;"/><path d="M2189.97,1497.31l-23.213,19.667l213.925,97.708c5.992,-10 12.584,-20.583 19.75,-31.5c34.109,-51.667 79.363,-110.333 131.167,-138.75c31.583,-17.167 92.879,-52.458 159.954,-91.5l-50.642,-87.958l27.975,-16.125l50.559,87.833c14.325,-8.333 28.737,-16.75 43.062,-25.167l-147.154,-244.67l-155.687,157.546l104.475,104.458l-22.825,22.833l-104.346,-104.333l-53.813,54.458l71.092,75.833l-23.533,22.042l-70.246,-74.916l-170.5,172.541Z" style="fill:#e2dcd5;fill-rule:nonzero;"/><path d="M2919.48,1684.22l42.317,-41.334l-182.671,-303.708c-14.5,8.458 -29.092,17 -43.592,25.458l183.946,319.584Z" style="fill:#e2dcd5;fill-rule:nonzero;"/><path d="M2981.18,1220.22c-23.345,13.833 -84.945,50.208 -155.666,91.75l175.787,292.291l185.85,-182.125l-205.971,-201.916Z" style="fill:#e2dcd5;fill-rule:nonzero;"/><path d="M2237.04,791.006l1.112,0.233c0,-0.02 0.096,0.03 1.309,0.221c1.233,0.188 3.174,0.471 5.787,0.775c5.171,0.579 12.862,1.221 22.142,1.192c23.3,0.071 56.041,-4.058 85.041,-20.263c12.075,-6.704 35.509,-20.325 65.263,-37.812l-38.65,-75.979l-72.213,46.717l-352.833,-27.93l1.913,76.759c160.862,20.512 280.025,35.962 280.083,35.975l1.046,0.112Z" style="fill:#e2dcd5;fill-rule:nonzero;"/><path d="M3228.75,1381.39l-52.225,-65.291l146.417,-175.167l-0,-235.821l-169.388,-164.654l-147.383,-75.296l-351.879,362.075l154.604,257.071c63.804,-37.458 120.187,-70.754 147.808,-87.083l-176.012,-173.496l22.637,-23.004l406.859,398.833l18.562,-18.167Z" style="fill:#e2dcd5;fill-rule:nonzero;"/><path d="M2778.51,1821.85l117.116,-114.334l-187.987,-326.625c-67.113,39.084 -128.504,74.375 -160.659,91.834c-50.745,26.916 -103.375,100.458 -136.812,155.416l146.829,67.042l70.592,-118.5l27.725,16.542l-68.779,115.458l150.354,68.625l-13.413,29.375l-146.358,-66.833l-4.625,24l130.7,58l75.317,0Z" style="fill:#e2dcd5;fill-rule:nonzero;"/><path d="M2351.81,1665.97c3.217,-6.167 7.45,-14.042 12.604,-23.25l-224.837,-102.667l-24.621,20.875l236.854,105.042Z" style="fill:#e2dcd5;fill-rule:nonzero;"/><path d="M1440.9,1242.93l183.658,37.667l9.746,-83.792l-142.441,-42.625l-0.38,-0.083l-0.075,-0.042l9.171,-30.917l0.088,0.042l-0,-0.042l0.646,0.209l168.274,49.333l-0.116,0.958l143.346,42.876l100.137,-2.292l0.538,-2.713l-0.546,-21.829l-94.771,-11l-138.508,-40.708l9.116,-30.959l135.884,39.917l87.466,10.167l-6.025,-241.721l-409.804,-34.137c-14.629,86.516 -32.179,195.929 -46.108,299.858c-2.688,19.954 -5.821,40.625 -9.296,61.833Z" style="fill:#e2dcd5;fill-rule:nonzero;"/><path d="M1905.3,882.931l-1.733,-69.637c-31.009,-3.938 -63.188,-8.021 -96.109,-12.184c-95.058,-12.025 -195.975,-24.671 -290.871,-36.371c-3.97,22.159 -9.075,51.017 -14.841,84.58l403.554,33.612Z" style="fill:#e2dcd5;fill-rule:nonzero;"/><path d="M2388.96,560.244l85.413,141.633c35.675,-21.129 74.929,-44.487 112.904,-67.146c80.7,-48.117 155.767,-93.112 179.521,-107.354l18.079,-34.367l-455.458,-226.487l-41.296,95.537l100.837,198.184Z" style="fill:#e2dcd5;fill-rule:nonzero;"/><path d="M1092.43,1033.09l-152.475,-25.425l-23.012,210.304l109.408,21.5l65.687,-203.625l0.392,-2.754Z" style="fill:#e2dcd5;fill-rule:nonzero;"/><path d="M874.86,1231.64l-116.754,-20.417l-36.758,75.745l184.971,85.671l-9.042,19.501l-185.321,-85.792l-33.987,70l181.666,82.292l-8.866,19.583l-182.188,-82.5l-62.041,127.833l348.366,12.417l101.367,-268.713l-181.413,-35.62Z" style="fill:#e2dcd5;fill-rule:nonzero;"/><path d="M2637.09,998.644l339.016,-348.85l-158.266,-80.855l-2.371,4.496l-7.733,4.65c-0.221,0.117 -183.338,110 -311.721,185.963l141.075,234.596Z" style="fill:#e2dcd5;fill-rule:nonzero;"/><path d="M3303.77,1478.81c-81.521,76.958 -156.042,160.25 -231.463,243.542l0.259,0.417l241.121,-239.292c-1.459,-0.417 -2.863,-0.959 -4.334,-1.375c-2.033,-0.542 -3.904,-1.709 -5.583,-3.292Z" style="fill:#e2dcd5;fill-rule:nonzero;"/><path d="M857.573,765.706l-226.692,-10.421l149.654,54.692l-83.616,168.933l131.025,25.721l62.2,-233.296l-32.571,-5.629Z" style="fill:#e2dcd5;fill-rule:nonzero;"/><path d="M1295.38,1821.85l96.617,0l6.858,-21l64.179,21l65.971,0l59.833,-196.625l-162.25,-51.792l9.809,-30.75l0.021,0.042l0.008,-0.042l5.325,1.708l187.283,59.584l-0.062,0.25l296.662,94.75l-2.996,-120.375l-452.441,-126l8.654,-31.042l442.95,123.292l-4.221,-169.042l-214.475,-35.75l5.3,-31.833l208.354,34.708l-2.396,-96.504l-105.912,2.463l-142.758,-42.709l-13.163,113.083l-217.058,-44.499c-36.184,204.958 -101.8,446.124 -140.092,547.083Z" style="fill:#e2dcd5;fill-rule:nonzero;"/><path d="M260.523,679.319l-33.096,68.941l0.579,0.117l1.446,0.796c18.675,10.262 33.354,22.083 44.879,34.733l31.084,-93.233l-44.892,-11.354Z" style="fill:#e2dcd5;fill-rule:nonzero;"/><path d="M1964.27,1090.28l440.117,144.15l193.804,-196.112l-148.5,-246.938c-29.679,17.446 -53.238,31.133 -65.942,38.187c-42.692,23.613 -86.137,28.338 -116.362,28.401c-21.088,-0.021 -36.013,-2.375 -40.53,-3.192c-3.929,-0.504 -21.362,-2.763 -49.175,-6.354l-33.741,86.775l-183.917,-15.321l4.246,170.404Z" style="fill:#e2dcd5;fill-rule:nonzero;"/><path d="M2455.32,1821.85l27.621,-62.417l-395.33,-175.333l-108.737,92.25l2.225,89.375l69.217,2.125l91.17,33.167l-0.025,0.041l-7.55,20.792l321.409,0Z" style="fill:#e2dcd5;fill-rule:nonzero;"/><path d="M2223.29,234.644l45.816,90.045l30.663,-70.929l-76.479,-19.116Z" style="fill:#e2dcd5;fill-rule:nonzero;"/><path d="M1957.54,820.173l1.679,67.254l163.379,13.612l22.121,-56.874c-47.563,-6.121 -112.609,-14.471 -187.179,-23.992Z" style="fill:#e2dcd5;fill-rule:nonzero;"/><path d="M847.056,1821.85l99.838,-264.667l-676.529,-24.125l-14.759,40.209l292.996,102.208l-10.608,30.5l-293.521,-102.417l-15.754,42.917l530.312,175.375l88.025,0Z" style="fill:#e2dcd5;fill-rule:nonzero;"/><path d="M115.115,1462.47l-94.442,268.75l112.937,49.417l96.905,-263.834l-115.4,-54.333Z" style="fill:#e2dcd5;fill-rule:nonzero;"/><path d="M-4.065,1406.35l-87.3,275.792l92.271,40.416l94.642,-269.292l-99.613,-46.916Z" style="fill:#e2dcd5;fill-rule:nonzero;"/><path d="M148.331,1136.56l-47.921,-16.833l-97.541,266.125l99.854,47l15.912,-45.292l-48.579,-23.083l78.275,-227.917Z" style="fill:#e2dcd5;fill-rule:nonzero;"/><path d="M369.327,706.835l117.271,37.313l2.158,-7.104l-119.429,-30.209Z" style="fill:#e2dcd5;fill-rule:nonzero;"/><path d="M30.619,1160.14l-43.021,107.542l-86.042,-35.837l53.775,-111.163l75.288,39.458Zm-263.975,120.08l216.604,96.629l96.871,-264.292l-241.942,-85.112l-71.533,147.154l-0,105.621Z" style="fill:#e2dcd5;fill-rule:nonzero;"/><path d="M551.094,1229.52l24.554,-53.375l-155.671,-71.834l-28.671,79.584l159.788,45.625Z" style="fill:#e2dcd5;fill-rule:nonzero;"/><path d="M524.198,815.156l196.833,66.579l29.6,-59.783l-175.171,-64.021l1.867,-5.112l-32,-1.471l-25.262,-6.388l-2.725,8.971l25.95,8.254l-19.092,52.971Z" style="fill:#e2dcd5;fill-rule:nonzero;"/><path d="M194.781,741.727l32.559,-67.821l-206.825,-21.521l-62.138,127.834l84.079,40.375l-9.308,19.391l-84.192,-40.395l-101.316,208.412l239.883,84.383l36.971,-100.87l20.2,7.383l-36.888,100.617l47.504,16.708l34.384,-100.1l-165.954,-68.029l-125.134,-35.754l5.909,-20.68l113.9,32.53c13.545,-79.721 31.854,-127.584 51.433,-156.584c20.304,-30.458 43.704,-39.996 61.371,-39.762c12.371,0.029 21.237,4.05 25.141,6.196l38.421,7.687Z" style="fill:#e2dcd5;fill-rule:nonzero;"/><path d="M1443.38,495.648c24.221,-134.463 74.954,-259.542 103.921,-392.367c9.067,-41.596 17.021,-83.375 24.971,-125.125l-224.692,0c-23.254,69.413 -63.975,127.963 -63.975,127.963c-178.679,63.529 -260.596,-19.538 -286.908,-127.963l-333.134,0l-63.029,506.392l-6.491,-0.809c72.325,31.95 116.312,51.463 116.341,51.475c0.042,0 13.496,5.934 38.629,15.584c25.13,9.666 61.509,22.879 106.075,36.996c89.08,28.241 210.925,59.941 340.575,73.941c53.396,5.784 127.267,14.442 211.209,24.588c12.237,-63.558 25.037,-127.025 36.508,-190.675Z" style="fill:#e2dcd5;fill-rule:nonzero;"/><path d="M598.156,242.294l-275.025,-9.834l0.167,-4.641l-28.413,124.187c106.338,46.667 201.917,88.784 274.567,120.875l28.704,-230.587Z" style="fill:#e2dcd5;fill-rule:nonzero;"/><path d="M1123.56,811.71l-212.133,-36.687l-71.179,266.979l-72.354,149.096l110.891,19.412l16.971,3.338l25.283,-231.146l174.384,29.071l10.629,-75.55l-159.912,-34.467l4.537,-21.021l158.367,34.159l14.516,-103.184Z" style="fill:#e2dcd5;fill-rule:nonzero;"/><path d="M1882.76,-21.844l-156.137,0l-171.717,630.254l344.367,32.579l-16.513,-662.833Z" style="fill:#e2dcd5;fill-rule:nonzero;"/><path d="M3322.94,397.202l-923.338,-419.05l-43.208,-0l966.546,435.962l-0,-16.912Z" style="fill:#e2dcd5;fill-rule:nonzero;"/><path d="M1693.18,-21.848l-72.983,-0c-13.658,70.379 -25.813,141.062 -42.779,210.921c-30.671,126.258 -77.167,245.687 -99.779,374.312c-7.55,42.967 -15.684,85.809 -23.871,128.634c14.291,1.741 28.791,3.516 43.479,5.32l195.933,-719.187Z" style="fill:#e2dcd5;fill-rule:nonzero;"/><path d="M-233.36,606.831l26.995,0.921l134.221,-259.221l0,0.021l19.113,9.858l-130.059,251.188l418.667,43.525l53.304,-233.284c-48.621,-21.358 -99.666,-43.729 -151.971,-66.604c-108.3,-47.358 -221.9,-96.816 -329.841,-143.412l-40.429,68.479l-0,328.529Z" style="fill:#e2dcd5;fill-rule:nonzero;"/><path d="M122.29,1442.06l133.345,62.792l13.838,-45.542l-131.3,-62.417l-15.883,45.167Z" style="fill:#e2dcd5;fill-rule:nonzero;"/><path d="M596.202,1182.93l-24.4,53.038l129.463,43.129l34.808,-71.713l-139.871,-24.454Z" style="fill:#e2dcd5;fill-rule:nonzero;"/><path d="M822.385,1025.45l-135.35,-26.563l-81.116,163.875l139.921,24.459l74.166,-152.817l2.379,-8.954Z" style="fill:#e2dcd5;fill-rule:nonzero;"/><path d="M148.356,754.381l-1.825,-1.204c0,0.042 0,-0 -0.587,-0.338c-0.642,-0.325 -1.704,-0.85 -3.071,-1.366c-2.758,-1.05 -6.804,-2.142 -11.654,-2.121c-10.4,0.212 -25.567,4.171 -43.567,30.292c-17.162,25.291 -35.367,71.441 -48.629,151.479l52.367,21.458l-6.996,-3.962l64.533,-172.084l102.796,15.113c-8.538,-8.021 -18.8,-15.696 -31.313,-22.854l-72.054,-14.413Z" style="fill:#e2dcd5;fill-rule:nonzero;"/><path d="M584.923,1156.72l80.246,-162.134l-192.058,-37.691l-45.805,127.096l157.617,72.729Z" style="fill:#e2dcd5;fill-rule:nonzero;"/><path d="M675.06,974.614l36.342,-73.416l-194.508,-65.784l-36.4,101.005l194.566,38.195Z" style="fill:#e2dcd5;fill-rule:nonzero;"/><path d="M418.919,1516.85l123.075,-267.542l-157.988,-45.166l-21.191,58.791l-75.659,249.208l131.763,4.709Z" style="fill:#e2dcd5;fill-rule:nonzero;"/><path d="M587.402,1522.85l-3.583,-1.75l64.679,-133.25l-125.892,-44.959l-80.4,174.792l145.196,5.167Z" style="fill:#e2dcd5;fill-rule:nonzero;"/><path d="M562.76,1255.6l-31.12,67.667l126.3,45.083l33.854,-69.75l-129.034,-43Z" style="fill:#e2dcd5;fill-rule:nonzero;"/><path d="M60.552,249.498c69.75,30.404 138.725,60.579 204.233,89.304l82.521,-360.646l-258.875,0l-58.958,147.383l-29.967,-11.974l54.175,-135.409l-40.321,0l-91.712,210.938c36.267,15.733 72.796,31.6 109.254,47.483l84.821,-167.346l28.779,14.6l-83.95,165.667Z" style="fill:#e2dcd5;fill-rule:nonzero;"/><path d="M1374.87,870.035c5.879,-40.17 12.767,-80.196 20.075,-120.146c-82.046,-9.916 -154.112,-18.35 -206.242,-23.987c-271.15,-29.454 -502.479,-130.946 -504.329,-131.629c-0.137,-0.054 -39.325,-17.434 -104.525,-46.246l-53.537,176.35l22.12,5.596l311.596,14.325l477.4,82.566l-3.654,21.196l-189.004,-32.683l-14.633,104.062l2.837,0.609l193.259,25.075l-2.771,21.3l-193.859,-25.125l-2.466,-0.538l-10.484,74.554l181.275,30.225l-3.541,21.23l-180.73,-30.134l-0.554,3.95l-65.508,203.055l214.8,42.166l-0.021,0l-4.129,21.083l-180.579,-35.416l-100.221,265.625l244.158,26.208c23.1,-89.916 51.9,-177.792 76.975,-267.833c38.892,-139.667 55.363,-282.417 76.292,-425.438Z" style="fill:#e2dcd5;fill-rule:nonzero;"/><path d="M1169.41,1821.85c9.195,-48.292 18.245,-96.584 26.933,-144.917c5.612,-31.25 12.404,-62.041 19.9,-92.583l-245.417,-26.292l-1.258,-0.042l-99.525,263.834l299.367,0Z" style="fill:#e2dcd5;fill-rule:nonzero;"/><path d="M1260.84,1821.85c0.792,-2.042 1.584,-4.125 2.371,-6.125c42.242,-107.958 125.788,-420.417 154.975,-638.917c21.534,-160.371 51.496,-333.125 66.346,-416.008c-14.479,-1.771 -28.775,-3.525 -42.858,-5.238c-14.354,75.725 -28.096,151.546 -38.309,228.034c-17.033,127.545 -34.72,255.67 -70.516,379.587c-38.779,134.25 -80.854,264.542 -106.013,402.334c-3.429,18.791 -6.97,37.541 -10.466,56.333l44.47,0Z" style="fill:#e2dcd5;fill-rule:nonzero;"/><path d="M631.044,-21.844l-250.634,0l-50.841,222.25l272.591,9.733l28.884,-231.983Z" style="fill:#e2dcd5;fill-rule:nonzero;"/><path d="M520.527,521.831c-57,-25.162 -125.846,-55.508 -201.558,-88.771l-51.6,225.784l227.637,57.612l55.121,-181.558c-9.496,-4.192 -19.308,-8.517 -29.6,-13.067Z" style="fill:#e2dcd5;fill-rule:nonzero;"/><path d="M380.931,1203.26l-18.116,59.667l21.191,-58.791l-3.075,-0.876Z" style="fill:#d1c3b9;fill-rule:nonzero;"/><path d="M305.415,690.673l-31.084,93.233c27.317,30.004 36.509,64.8 36.271,95.433c-0.108,46.717 -19.2,84.742 -22.667,91.38l-59.891,170.42l127.9,33.334l130.654,-430.325l-117.271,-37.313l-63.912,-16.162Z" style="fill:#d1c3b9;fill-rule:nonzero;"/><path d="M148.331,1136.56l-78.275,227.917l48.579,23.083l81.78,-232.667l-52.084,-18.333Z" style="fill:#d1c3b9;fill-rule:nonzero;"/><path d="M427.306,1083.99l45.805,-127.096l-16.413,-3.217l-38.317,126.196l8.925,4.117Z" style="fill:#d1c3b9;fill-rule:nonzero;"/><path d="M138.173,1396.89l131.3,62.417l80.221,-264.25l-128.792,-33.583l-82.729,235.416Z" style="fill:#d1c3b9;fill-rule:nonzero;"/><path d="M391.306,1183.89l28.671,-79.584l-7.904,-3.625l-24.904,82l4.137,1.209Z" style="fill:#d1c3b9;fill-rule:nonzero;"/><path d="M524.198,815.156l19.092,-52.971l-25.95,-8.254l-16.221,53.421l23.079,7.804Z" style="fill:#d1c3b9;fill-rule:nonzero;"/><path d="M207.544,1134.64l34.387,-97.879l-0.275,0.663l-51.962,-21.3l-34.384,100.1l52.234,18.416Z" style="fill:#d1c3b9;fill-rule:nonzero;"/><path d="M84.394,948.619l6.996,3.962l157.441,64.529l19.338,-55.029l0.408,-0.754c-0.062,-0.062 4.992,-8.958 10.179,-24.029c5.209,-15.054 10.354,-35.767 10.334,-57.959c-0.259,-29.204 -8.367,-60.466 -37.367,-87.691l-102.796,-15.113l-64.533,172.084Z" style="fill:#d1c3b9;fill-rule:nonzero;"/><path d="M480.494,936.419l36.4,-101.005l-22.025,-7.445l-31.888,105.012l17.513,3.438Z" style="fill:#d1c3b9;fill-rule:nonzero;"/><path d="M-12.402,1267.68l43.021,-107.542l-75.288,-39.458l-53.779,111.163l86.046,35.837Z" style="fill:#d1c3b9;fill-rule:nonzero;"/><path d="M1283.6,106.119c0,-0 40.721,-58.55 63.975,-127.967l-350.883,-0c26.312,108.429 108.229,191.496 286.908,127.967Z" style="fill:#aacf9a;fill-rule:nonzero;"/><path d="M1477.64,563.385c22.612,-128.625 69.108,-248.054 99.779,-374.312c16.966,-69.859 29.121,-140.542 42.779,-210.921l-47.925,-0c-7.954,41.754 -15.908,83.533 -24.979,125.129c-28.967,132.825 -79.696,257.904 -103.917,392.367c-11.466,63.65 -24.271,127.117 -36.508,190.675c15.325,1.854 30.967,3.75 46.9,5.696c8.187,-42.825 16.321,-85.667 23.871,-128.634Z" style="fill:#73bdba;fill-rule:nonzero;"/><path d="M3303.77,1478.81c1.679,1.583 3.55,2.75 5.583,3.292c1.471,0.416 2.875,0.958 4.334,1.375l9.254,-9.208l-0,-109.917l-293.154,287.291l42.52,70.709c75.421,-83.292 149.942,-166.584 231.463,-243.542Z" style="fill:#73bdba;fill-rule:nonzero;"/><path d="M1216.37,1821.85c3.496,-18.792 7.037,-37.542 10.466,-56.333c25.159,-137.792 67.234,-268.084 106.013,-402.334c35.796,-123.917 53.483,-252.042 70.516,-379.587c10.213,-76.488 23.955,-152.309 38.309,-228.034c-15.883,-1.937 -31.467,-3.829 -46.721,-5.671c-7.308,39.955 -14.196,79.976 -20.071,120.146c-20.933,143.021 -37.4,285.771 -76.296,425.438c-25.079,90.041 -53.875,177.917 -76.975,267.833l2.184,0.209l-2.292,21.374l-5.254,-0.541c-7.496,30.542 -14.288,61.333 -19.9,92.583c-8.692,48.333 -17.738,96.625 -26.929,144.917l46.95,0Z" style="fill:#73bdba;fill-rule:nonzero;"/><path d="M3322.94,349.969l-819.275,-371.817l-104.063,-0l923.338,419.05l-0,-47.233Z" style="fill:#fff;fill-rule:nonzero;"/><path d="M2735.53,1364.64c14.5,-8.458 29.092,-17 43.592,-25.458l182.671,303.708l-42.317,41.334l-183.946,-319.584Zm-203.937,79.792c-51.804,28.417 -97.054,87.083 -131.167,138.75c-7.166,10.917 -13.758,21.5 -19.75,31.5l-213.925,-97.708l23.213,-19.667l170.5,-172.541l70.25,74.916l23.529,-22.042l-71.092,-75.833l53.817,-54.458l104.342,104.333l22.825,-22.833l-104.475,-104.458l155.687,-157.546l147.154,244.67c-14.325,8.417 -28.737,16.834 -43.062,25.167l-50.559,-87.833l-27.97,16.125l50.641,87.958c-67.075,39.042 -128.375,74.333 -159.958,91.5Zm-167.188,198.292c-5.158,9.208 -9.383,17.083 -12.604,23.25l-236.854,-105.042l24.621,-20.875l224.837,102.667Zm182.5,83.333l-4.687,24.375l-160.867,-71.333c1.95,-3.708 4.209,-7.958 6.838,-12.75c1.721,-3.209 3.587,-6.625 5.604,-10.208l153.112,69.916Zm-569.066,-91.125l-12.721,-510.416l413.913,135.541l-211.067,213.583l-190.125,161.292Zm-308.375,-461.292l0.116,-0.958l-168.274,-49.333l-0.646,-0.209l-0,0.042l-0.088,-0.042l-9.166,30.917l0.07,0.042l0.38,0.083l142.441,42.625l-9.746,83.792l-183.654,-37.667c3.475,-21.208 6.604,-41.879 9.292,-61.833c13.929,-103.929 31.479,-213.342 46.108,-299.858l409.804,34.137l6.025,241.721l-87.466,-10.167l-135.884,-39.917l-9.116,30.959l138.508,40.708l94.771,11l0.546,21.829l-0.538,2.713l-100.137,2.292l-143.346,-42.876Zm-152.884,-408.9c94.896,11.7 195.809,24.346 290.871,36.371c32.921,4.163 65.1,8.246 96.109,12.184l1.733,69.637l-403.554,-33.612c5.766,-33.563 10.871,-62.421 14.841,-84.58Zm439.33,-9.82l-1.913,-76.759l352.829,27.93l72.209,-46.717l38.654,75.979c-29.754,17.487 -53.188,31.108 -65.263,37.812c-29,16.209 -61.741,20.334 -85.041,20.259c-9.28,0.033 -16.971,-0.609 -22.142,-1.188c-2.613,-0.304 -4.554,-0.587 -5.787,-0.775c-1.217,-0.187 -1.309,-0.241 -1.309,-0.221l-1.112,-0.229l-1.046,-0.116c-0.058,-0.013 -119.221,-15.463 -280.079,-35.975Zm-426.338,-53.596l16.713,-61.309l353.787,33.467l1.858,74.567c-116.754,-14.838 -249.345,-31.55 -372.358,-46.725Zm859.379,-141.079l-100.837,-198.184l41.296,-95.537l455.458,226.492l-18.079,34.366c-23.754,14.238 -98.821,59.233 -179.521,107.35c-37.975,22.659 -77.229,46.013 -112.908,67.146l-85.409,-141.633Zm-165.666,-325.6l76.479,19.116l-30.663,70.929l-45.816,-90.045Zm197.758,-180.142l480.542,216.746l-101.692,193.225l-457.658,-227.625l78.808,-182.346Zm555.062,595.292l-339.016,348.85l-141.075,-234.596c128.383,-75.963 311.5,-185.846 311.721,-185.963l7.733,-4.65l2.371,-4.496l158.266,80.855Zm-853.512,251.245l-163.379,-13.612l-1.679,-67.254c74.57,9.517 139.616,17.866 187.179,23.992l-22.121,56.874Zm475.596,137.276l-193.804,196.112l-440.117,-144.154l-4.246,-170.4l183.917,15.321l33.741,-86.775c27.813,3.591 45.246,5.85 49.175,6.354c4.517,0.817 19.442,3.171 40.53,3.192c30.225,-0.063 73.675,-4.788 116.362,-28.401c12.704,-7.058 36.258,-20.741 65.942,-38.187l148.5,246.938Zm382.991,181.908l205.971,201.916l-185.85,182.125l-175.787,-292.291c70.721,-41.542 132.321,-77.917 155.666,-91.75Zm-2486.18,-503.767l-227.637,-57.612l51.6,-225.784c75.712,33.263 144.558,63.609 201.558,88.771c10.292,4.55 20.104,8.875 29.6,13.067l-55.121,181.558Zm-6.25,20.588l-2.158,7.104l-130.654,430.325l-127.9,-33.334l59.891,-170.42c3.463,-6.638 22.559,-44.663 22.663,-91.38c0.242,-30.633 -8.95,-65.429 -36.267,-95.433c-11.525,-12.65 -26.204,-24.471 -44.879,-34.733l-1.45,-0.796l-0.579,-0.117l33.1,-68.941l44.892,11.354l63.912,16.162l119.429,30.209Zm56.567,14.304l32.004,1.471l-1.867,5.112l175.171,64.021l-29.6,59.783l-196.837,-66.579l-23.075,-7.804l16.221,-53.421l2.725,-8.971l25.258,6.388Zm312.25,14.358l32.571,5.629l-62.2,233.296l-131.025,-25.725l83.612,-168.929l-149.645,-54.692l226.687,10.421Zm265.983,46.004l-14.516,103.184l-158.367,-34.155l-4.537,21.017l159.912,34.467l-10.629,75.55l-174.384,-29.071l-25.283,231.146l-16.971,-3.338l-110.891,-19.412l72.354,-149.096l71.179,-266.979l212.133,36.687Zm-31.129,221.384l-0.392,2.754l-65.687,203.625l-109.408,-21.5l23.012,-210.304l152.475,25.425Zm-36.154,234.166l-101.367,268.713l-348.366,-12.417l62.041,-127.833l182.188,82.5l8.866,-19.583l-181.666,-82.292l33.987,-70l185.321,85.792l9.042,-19.501l-184.971,-85.671l36.758,-75.745l116.754,20.417l181.413,35.62Zm-922.663,513.38l-112.941,-49.417l94.446,-268.75l115.4,54.333l-96.905,263.834Zm-224.975,-98.5l87.3,-275.792l99.613,46.916l-94.646,269.292l-92.267,-40.416Zm441.059,-487.084l-80.221,264.25l-13.838,45.542l-133.345,-62.792l15.887,-45.208l82.725,-235.375l128.792,33.583Zm70.283,-90.75l155.671,71.834l-24.558,53.375l-159.78,-45.625l-4.141,-1.209l24.904,-82l7.904,3.625Zm185.942,58.458l81.116,-163.879l135.355,26.567l-2.384,8.954l-74.162,152.817l-139.925,-24.459Zm-34.117,73.205l24.4,-53.038l139.871,24.454l-34.808,71.713l-129.463,-43.129Zm-40.162,87.296l31.12,-67.667l129.034,43l-33.854,69.75l-126.3,-45.083Zm-112.721,193.583l-131.763,-4.709l75.659,-249.208l18.116,-59.667l3.075,0.876l157.988,45.166l-123.075,267.542Zm103.687,-173.959l125.892,44.959l-64.679,133.25l3.583,1.75l-145.196,-5.167l80.4,-174.792Zm-42.112,-406.47l-17.513,-3.438l31.888,-105.012l22.025,7.445l194.508,65.784l-36.342,73.416l-194.566,-38.195Zm-7.383,20.483l192.054,37.687l-80.242,162.134l-157.617,-72.729l-8.921,-4.117l38.313,-126.196l16.413,3.221Zm-470.242,428.946l97.541,-266.125l47.921,16.833l52.079,18.333l-81.775,232.667l-15.912,45.292l-99.854,-47Zm128.35,-636.496c4.85,-0.021 8.896,1.071 11.654,2.121c1.367,0.516 2.429,1.041 3.071,1.366c0.587,0.338 0.587,0.38 0.587,0.338l1.825,1.204l72.054,14.413c12.513,7.158 22.775,14.833 31.313,22.854c29,27.225 37.108,58.487 37.367,87.691c0.02,22.192 -5.125,42.905 -10.334,57.959c-5.187,15.071 -10.241,23.967 -10.179,24.029l-0.408,0.754l-19.338,55.029l-157.441,-64.529l-52.367,-21.458c13.262,-80.038 31.467,-126.188 48.629,-151.479c18,-26.121 33.167,-30.08 43.567,-30.292Zm-23.413,350.163l36.888,-100.617l-20.2,-7.383l-36.971,100.87l-239.883,-84.383l101.316,-208.412l84.192,40.395l9.308,-19.391l-84.079,-40.375l62.138,-127.834l206.825,21.521l-32.559,67.821l-38.421,-7.687c-3.904,-2.146 -12.77,-6.167 -25.141,-6.196c-17.667,-0.234 -41.071,9.304 -61.371,39.762c-19.579,29 -37.888,76.863 -51.438,156.584l-113.895,-32.53l-5.909,20.68l125.134,35.754l165.954,68.029l51.962,21.3l0.275,-0.663l-34.387,97.879l-52.238,-18.416l-47.5,-16.708Zm187.084,-747.509l28.408,-124.187l-0.167,4.641l275.025,9.834l-28.704,230.587c-72.654,-32.091 -168.229,-74.208 -274.562,-120.875Zm3009.73,1216.22l18.325,9.708l-0,-103.666l-9.25,9.208l-241.121,239.292l-0.258,-0.417l-42.525,-70.709l293.154,-287.291l-0,-75.296l-94.192,92.337l-18.562,18.167l-406.859,-398.829l-22.641,23l176.016,173.496c-27.621,16.329 -84.004,49.625 -147.808,87.083l-154.604,-257.071l351.883,-362.075l147.379,75.296l169.388,164.654l-0,-45.008l-150.342,-146.146l-143.65,-73.396c18.133,-17.479 51.513,-42.841 88.167,-42.233c13.683,-0 28.117,3.112 43.775,11.404c91.325,48.346 95.137,48.896 110.591,56.646c9.625,4.504 20.48,5.775 33.846,5.975c5.629,-0.013 11.571,-0.379 17.613,-1.188l-0,-32.666c-5.884,1.083 -11.996,1.616 -17.613,1.591c-9.762,0.175 -18.829,-2 -19.416,-2.583c-16.809,-8.404 -18.355,-7.837 -109.909,-56.296c-20.054,-10.675 -40.175,-15.191 -58.887,-15.17c-57.742,0.883 -99.904,39.324 -118.183,59.187l-166.063,-84.846l127.658,-242.55l362.413,163.471l-0,-47.188l-966.546,-435.958l-104.608,0l139.841,63.075l-78.887,182.5l-108.85,-27.204l-111.109,-218.371l-117.67,0l366.687,608.021l22.529,44.292l-65.837,42.587l-223.85,-17.708l44.212,-121.584l-30.316,-11.029l-47.259,129.98l-88.091,-6.976l-16.625,-667.583l-53.809,0l16.513,662.833l-344.367,-32.579l171.717,-630.254l-33.438,0l-195.933,719.188c-14.683,-1.809 -29.188,-3.584 -43.479,-5.325c-15.933,-1.946 -31.575,-3.842 -46.9,-5.696c-83.942,-10.146 -157.813,-18.804 -211.209,-24.588c-129.65,-14 -251.495,-45.7 -340.575,-73.941c-44.566,-14.117 -80.945,-27.33 -106.075,-36.996c-25.133,-9.65 -38.587,-15.584 -38.629,-15.584c-0.029,-0.012 -44.016,-19.525 -116.341,-51.475l6.491,0.809l63.029,-506.392l-32.516,0l-28.884,231.983l-272.591,-9.733l50.841,-222.25l-33.104,0l-82.521,360.646c-65.508,-28.725 -134.483,-58.9 -204.233,-89.304l83.95,-165.667l-28.779,-14.6l-84.821,167.346c-36.458,-15.883 -72.987,-31.75 -109.254,-47.483l91.712,-210.938l-35.166,0l-31.371,72.15l-111.829,-45.187l-12.075,29.904l111.029,44.887l-41.888,96.367c-42.595,-18.442 -84.566,-36.554 -125.42,-54.117l-0,70.238c3.525,1.517 7.033,3.029 10.57,4.55l-10.57,17.9l-0,63.454l40.429,-68.479c107.941,46.596 221.541,96.054 329.841,143.412c52.305,22.875 103.35,45.246 151.971,66.604l-53.304,233.284l-418.667,-43.525l130.059,-251.188l-19.113,-9.858l0,-0.021l-134.221,259.221l-26.995,-0.921l-0,21.513l16.041,0.545l-16.041,30.976l-0,46.808l39.654,-76.575l191.471,19.929l-170.55,350.792l-60.575,-21.309l-0,22.767l51.12,17.983l-51.12,105.171l-0,49.167l71.537,-147.154l241.942,85.112l-96.871,264.292l-216.608,-96.629l-0,23.545l82.779,36.917l-8.054,16.042l-74.725,148.5l-0,47.875l94.233,-187.292l8.217,-16.333l107.154,47.792l-87.429,276.208l-122.175,-53.459l-0,35.209l112.387,49.208l-20.096,63.458c-28.241,-6.666 -59.483,-16.291 -92.291,-27.833l-0,34.167c28.937,9.875 56.737,18.25 82.545,24.5l-7.32,23.125l22.55,0l34.416,-108.75l91.338,40l-24.163,68.75l22.813,0l21.121,-60.125l112.516,49.291l-3.979,10.834l126.896,0l-71.638,-25.667l43.859,-119.417l438.696,145.084l102.745,0l-530.316,-175.375l15.754,-42.917l293.521,102.417l10.608,-30.5l-292.996,-102.208l14.759,-40.209l676.529,24.125l-99.838,264.667l22.988,0l99.525,-263.834l1.258,0.042l245.417,26.292l5.254,0.541l2.292,-21.374l-2.18,-0.209l-244.162,-26.208l100.221,-265.625l180.579,35.416l4.129,-21.083l0.021,0l-214.8,-42.166l65.508,-203.055l0.554,-3.95l180.73,30.134l3.537,-21.23l-181.271,-30.225l10.484,-74.554l2.466,0.538l193.859,25.125l2.771,-21.3l-193.259,-25.075l-2.833,-0.609l14.629,-104.062l189.004,32.683l3.654,-21.196l-477.4,-82.566l-311.596,-14.325l-22.12,-5.596l53.537,-176.35c65.2,28.812 104.388,46.192 104.525,46.246c1.85,0.683 233.179,102.175 504.329,131.629c52.13,5.637 124.196,14.071 206.242,23.987c15.254,1.842 30.838,3.734 46.721,5.671c14.083,1.713 28.379,3.467 42.862,5.242c-14.854,82.879 -44.816,255.633 -66.35,416.004c-29.187,218.5 -112.729,530.959 -154.975,638.917c-0.787,2 -1.579,4.083 -2.366,6.125l34.537,0c38.292,-100.959 103.913,-342.125 140.092,-547.083l217.058,44.499l13.159,-113.083l142.762,42.709l105.912,-2.463l2.396,96.504l-208.35,-34.708l-5.308,31.833l214.475,35.75l4.225,169.042l-442.95,-123.292l-8.654,31.042l452.446,126l2.991,120.375l-296.662,-94.75l0.062,-0.25l-187.283,-59.584l-5.325,-1.708l-0.008,0.042l-0.021,-0.042l-9.809,30.75l162.25,51.792l-59.833,196.625l33.721,0l26.742,-87.875l30.104,-98.917l2.054,0.667l39.625,12.667l265.233,84.708l2.213,88.75l53.796,0l-0.592,-23.834l62.271,1.959l18.379,6.708l-2.817,15.167l32.825,0l0.738,-4l10.971,4l29.645,0l7.55,-20.792l0.025,-0.041l-91.17,-33.167l-69.217,-2.125l-2.225,-89.375l108.737,-92.25l395.33,175.333l-27.621,62.417l35.283,0l21.829,-49.334l111.175,49.334l79.592,0l-130.7,-58l4.625,-24l146.358,66.833l13.417,-29.375l-150.354,-68.625l68.775,-115.458l-27.725,-16.542l-70.592,118.5l-146.829,-67.042c33.433,-54.958 86.067,-128.5 136.812,-155.416c32.155,-17.459 93.546,-52.75 160.659,-91.834l187.987,326.625l-117.121,114.334l76.967,0l134.796,-131.584l42.938,71.375l-61.363,60.209l76.804,0l12.804,-12.583l7.388,12.583l62.375,0l-30.263,-51.5l203.663,-202.125Z" style="fill:#fff;fill-rule:nonzero;"/><path d="M3322.94,292.314l-281.934,-129.708l100.088,-184.454l-97.904,-0l-80.529,148.404l-322.554,-148.404l-102.892,-0l785.725,361.508l-0,-47.346Z" style="fill:#fff;fill-rule:nonzero;"/></g><g><path d="M1668.7,537.452c0,69.787 -123.91,253.925 -123.91,253.925c-0,0 -123.911,-184.138 -123.911,-253.925c0,-69.787 55.476,-126.363 123.911,-126.363c68.434,0 123.913,56.576 123.91,126.363Z" style="fill:#f9ba20;fill-rule:nonzero;"/><path d="M1603.04,531.882c0,32.802 -26.078,59.398 -58.246,59.398c-32.169,-0 -58.244,-26.593 -58.244,-59.398c-0,-32.804 26.075,-59.394 58.244,-59.394c32.168,-0 58.246,26.59 58.246,59.394Z" style="fill:#fff;fill-rule:nonzero;"/></g></g></g></svg>