<?xml version="1.0" encoding="UTF-8" standalone="no"?><!DOCTYPE svg PUBLIC "-//W3C//DTD SVG 1.1//EN" "http://www.w3.org/Graphics/SVG/1.1/DTD/svg11.dtd"><svg width="100%" height="100%" viewBox="0 0 12500 8334" version="1.1" xmlns="http://www.w3.org/2000/svg" xmlns:xlink="http://www.w3.org/1999/xlink" xml:space="preserve" xmlns:serif="http://www.serif.com/" style="fill-rule:evenodd;clip-rule:evenodd;stroke-linejoin:round;stroke-miterlimit:2;"><g><path d="M10722,7670.29c-617.458,-0 -8965.27,-18 -8965.27,-19c-3.442,-8.125 -1059.73,-1302.71 270.345,-2656.25c659.034,-670.667 -605.2,-1539.56 0,-2285.58c673.088,-829.704 1341.57,-817.32 1961.57,-804.937c334.9,6.687 655.692,13.379 955.4,-112.675c151,-63.438 302.5,-165.554 454.167,-322.254c85.375,-88.109 178.916,-165.171 279.083,-231.708c15.375,-10.242 30.875,-20.242 46.542,-29.959c60,-37.196 122.166,-70.821 186.208,-101.063c43.042,-20.291 86.875,-39.058 131.542,-56.295l0.041,-0c70.834,-27.388 143.625,-51.013 217.959,-70.971c105.541,-28.383 214.25,-49.483 325.083,-63.771c48.333,-6.288 97.083,-11.191 146.167,-14.904c954.833,-71.779 2029.33,331.962 2583.88,922.075c111.625,118.829 619.291,733.683 219.125,1578.79c-252.667,533.576 805.791,1043.17 1181.96,1652.46c956.25,1549.12 14.875,2595.83 6.208,2616.04Z" style="fill:#fff7e3;fill-rule:nonzero;"/><path d="M7999.5,4720.79l-272.625,-408.621l-163.584,-610.925l-1.291,-4.85l0,-0.004l-245.917,-0l-443.625,-664.988c41.542,7.367 97.834,43.009 169.584,91.417c26.25,17.729 46.125,25.05 61.792,25.05c58.375,-0.008 58.499,-101.663 115.041,-145.45c13.333,-10.325 30.625,-14.325 49.958,-14.325c33.167,-0 72.459,11.771 108.501,23.537c36.041,11.776 68.791,23.542 88.958,23.542c11.124,0 18.374,-3.6 20.208,-12.779c10.375,-52.084 -65.542,-79.675 -131.375,-99.3c-65.875,-19.621 -90.708,-45.859 -30.334,-152.75c60.293,-106.913 -10.708,-76.879 -54.541,-204.504c-19.917,-58.013 -57.541,-86.951 -92.625,-101.188c-30.25,6.196 -60.333,13.563 -89.958,22.055c-62.167,17.787 -122.751,40.483 -181.126,67.828c-88.582,41.426 -172.166,93.471 -248.708,155.184c76.542,-61.713 160.126,-113.758 248.708,-155.184c58.375,-27.345 118.959,-50.041 181.126,-67.828c29.625,-8.492 59.708,-15.859 89.958,-22.055c79.542,-16.367 161.083,-24.825 243.459,-24.825c137.582,-0 277.541,23.6 414.416,73.35c29,10.55 57.375,22.075 85.042,34.579c39.083,17.567 76.791,37.005 113.083,58.188c152.875,89.133 280.792,208.754 378.875,347.987l0.042,0.021c61.125,86.705 110.625,180.963 147.25,280.279c19.25,52.155 34.958,105.667 46.875,160.188c7.453,33.946 13.5,68.221 18.037,102.854c10.921,83.209 13.171,168.092 6.296,253.404c-8.25,-8.15 -17.796,-14.133 -28.541,-17.721c-0,0 19.078,-31.716 -133,-74.117c-152.084,-42.395 -87.167,-212.062 -225.042,-249.291c-26.458,-7.15 -48.333,-9.904 -67.25,-9.904c-31.625,-0 -54.834,7.741 -77,15.479c-22.125,7.742 -43.208,15.479 -70.667,15.479c-13.958,0 -29.583,-2.012 -47.833,-7.062c-30.584,-8.451 -60.542,-13.055 -87.584,-13.055c-71.25,0 -121.541,32.109 -105.625,110.321c22,107.846 -103.666,81.479 -79.374,209.501c24.333,128.016 169.708,135.762 289.166,143.766c119.5,8.004 -66.458,156.217 12.958,265.608c79.417,109.4 236.917,127.984 152.125,184.109c-84.833,56.166 -245.958,171.5 -124.375,280.125c25.834,23.125 56.542,34.541 90.292,35.583c-41.541,29.833 -84.917,57 -129.75,81.292Zm377.583,-1378.87c53.75,-0 80.584,39.067 109.375,78.129c28.834,39.067 59.667,78.125 121.496,78.125c5.337,0 10.921,-0.292 16.75,-0.9c-4.537,-34.633 -10.584,-68.908 -18.037,-102.854c-11.917,-54.521 -27.625,-108.033 -46.875,-160.188c-36.625,-99.316 -86.125,-193.574 -147.25,-280.279l-0.042,-0.021c-7.625,-2.033 -15.208,-3.025 -22.666,-3.025c-0.417,0 -0.834,0.004 -1.251,0.009c0,-0 -49.208,-27.125 -98.416,-27.125c-25.792,-0 -51.542,7.471 -70.209,30.245c-54.124,66.192 -169.667,-5.829 -211.708,86.213c-42.042,92.104 164.833,42.783 226.25,133.779c57.917,85.929 13.917,169.254 113,169.25c5.916,0 12.292,-0.291 19.25,-0.9c3.542,-0.308 7,-0.458 10.333,-0.458Zm-892.25,-760.825c-48.416,-0 -74.208,45.633 -47,114.387c30.417,76.776 35.667,196.463 87.209,196.467c8.25,-0 17.666,-3.058 28.541,-9.846c69.5,-43.229 84.542,-91.65 131.834,-91.65c6.541,0 13.708,0.929 21.75,2.933c-0,0 98.333,-69.6 5.875,-134.279c-92.459,-64.679 -103.625,-28.058 -180.167,-65.5c-17.459,-8.533 -33.75,-12.512 -48.042,-12.512Z" style="fill:#ffedc0;fill-rule:nonzero;"/><path d="M7103.83,3147.87c-15.667,-0 -35.542,-7.321 -61.792,-25.05c-71.75,-48.408 -128.042,-84.05 -169.584,-91.417l-214.625,-321.683c76.542,-61.713 160.126,-113.758 248.708,-155.184c58.375,-27.345 118.959,-50.041 181.126,-67.828c29.625,-8.492 59.708,-15.859 89.958,-22.055c35.084,14.237 72.708,43.175 92.625,101.188c43.833,127.625 114.834,97.591 54.541,204.504c-60.374,106.891 -35.541,133.129 30.334,152.75c65.833,19.625 141.75,47.216 131.375,99.3c-1.834,9.179 -9.084,12.779 -20.208,12.779c-20.167,0 -52.917,-11.766 -88.958,-23.542c-36.042,-11.766 -75.334,-23.537 -108.501,-23.537c-19.333,-0 -36.625,4 -49.958,14.325c-56.542,43.787 -56.666,145.442 -115.041,145.45Z" style="fill:#ffd671;fill-rule:nonzero;"/><path d="M8129.25,4639.5c-33.75,-1.042 -64.458,-12.458 -90.292,-35.583c-121.583,-108.625 39.542,-223.959 124.375,-280.125c84.792,-56.125 -72.708,-74.709 -152.125,-184.109c-79.416,-109.391 106.542,-257.604 -12.958,-265.608c-119.458,-8.004 -264.833,-15.75 -289.166,-143.766c-24.292,-128.022 101.374,-101.655 79.374,-209.501c-15.916,-78.212 34.375,-110.321 105.625,-110.321c27.042,0 57,4.604 87.584,13.055c18.25,5.05 33.875,7.062 47.833,7.062c27.459,0 48.542,-7.737 70.667,-15.479c22.166,-7.738 45.375,-15.479 77,-15.479c18.917,-0 40.792,2.754 67.25,9.904c137.875,37.229 72.958,206.896 225.042,249.291c152.078,42.401 133,74.117 133,74.117c10.745,3.588 20.291,9.571 28.541,17.721c-8.546,106.142 -31.338,212.975 -69.5,317.9c-25.463,70.1 -56.75,136.504 -93.125,198.759c-87.292,149.412 -203.667,275.037 -339.125,372.162Z" style="fill:#ffd671;fill-rule:nonzero;"/><path d="M8607.95,3498.18c-61.829,0 -92.662,-39.058 -121.496,-78.125c-28.791,-39.062 -55.625,-78.129 -109.375,-78.129c-3.333,-0 -6.791,0.15 -10.333,0.458c-6.958,0.609 -13.334,0.9 -19.25,0.9c-99.083,0.004 -55.083,-83.321 -113,-169.25c-61.417,-90.996 -268.292,-41.675 -226.25,-133.779c42.041,-92.042 157.584,-20.021 211.708,-86.213c18.667,-22.774 44.417,-30.245 70.209,-30.245c49.208,-0 98.416,27.125 98.416,27.125c0.417,-0.005 0.834,-0.009 1.251,-0.009c7.458,0 15.041,0.992 22.666,3.025l0.042,0.021c61.125,86.705 110.625,180.963 147.25,280.279c19.25,52.155 34.958,105.667 46.875,160.188c7.453,33.946 13.5,68.221 18.037,102.854c-5.829,0.608 -11.413,0.9 -16.75,0.9Z" style="fill:#ffd671;fill-rule:nonzero;"/><path d="M7525.04,2891.95c-51.542,-0.004 -56.792,-119.691 -87.209,-196.467c-27.208,-68.754 -1.416,-114.387 47,-114.387c14.292,-0 30.583,3.979 48.042,12.512c76.542,37.442 87.708,0.821 180.167,65.5c92.458,64.679 -5.875,134.279 -5.875,134.279c-8.042,-2.004 -15.209,-2.933 -21.75,-2.933c-47.292,0 -62.334,48.421 -131.834,91.65c-10.875,6.788 -20.291,9.846 -28.541,9.846Z" style="fill:#ffd671;fill-rule:nonzero;"/><path d="M2032.39,7654.75l423.32,-0c22.684,-19.25 -15.695,-62.958 -55.799,-65.875c-17.421,-1.333 -39.446,2.333 -64.613,7.625c-5.825,-77.375 -39.092,-425.167 -164.467,-411.208c-140.971,15.666 0,153.166 39.85,234.583c29.521,60.333 60.663,146.792 74.892,187.625c-11.442,2.5 -23.292,4.917 -35.396,7.125c-18.683,-57.333 -88.208,-250.333 -176.621,-239.083c-103.804,13.166 -62.079,90.541 11.496,136.458c53.975,33.792 120.263,81.792 151.759,104.958c-26.688,4.375 -54.542,7.292 -82.792,6.667c-72.509,-1.75 -107.904,19.625 -121.629,31.125Z" style="fill:#a8d29f;fill-rule:nonzero;"/><path d="M8769.46,7654.75l-393.166,-0c-21.084,-17.875 14.583,-58.458 51.833,-61.208c16.167,-1.209 36.625,2.166 60,7.125c5.416,-71.875 36.292,-394.959 152.75,-381.959c130.958,14.542 0,142.25 -37.004,217.917c-27.412,56 -56.334,136.333 -69.579,174.25c10.666,2.292 21.662,4.542 32.912,6.625c17.338,-53.292 81.921,-232.542 164.046,-222.083c96.416,12.208 57.667,84.083 -10.667,126.75c-50.171,31.375 -111.713,75.958 -140.958,97.5c24.75,4.041 50.625,6.75 76.875,6.166c67.375,-1.625 100.25,18.25 112.958,28.917Z" style="fill:#a8d29f;fill-rule:nonzero;"/><path d="M9050.29,5077.33c-0,0 9.375,-93.083 -39.334,-89.916c-48.667,3.208 -61.541,25.541 -56.125,43.416c5.459,17.875 52.792,77.084 52.792,77.084l42.667,-30.584Z" style="fill:#6d2c00;fill-rule:nonzero;"/><path d="M9808.75,5263.83c0,0 -53.917,63.334 -169.791,136.375c-10.959,6.959 -22.459,13.917 -34.542,20.959c-45,26.208 -97.792,53.083 -158.75,78.125c-6.708,2.75 -14.584,5.791 -23.458,8.958c-69.418,25.083 -197.209,60.625 -276.376,63.833c-6.916,0.25 -13.416,0.25 -19.499,0.042c-120.543,-4.875 -135.209,-472.625 -135.209,-472.625c0,0 13.417,-46.792 75.333,-35c0,-0 94,264.167 127.709,285.667c29.958,19.166 201.958,-241.625 350.042,-259.875c99.708,-12.25 264.541,173.541 264.541,173.541Z" style="fill:#ffc83d;fill-rule:nonzero;"/><path d="M9484.96,7544.75c-0,0 8.917,102.958 -12.833,113.667l-278.542,-0.542c0,-0 0,-32.167 44.708,-39.292c44.75,-7.166 123.334,-33.333 136.667,-91.708c13.292,-58.333 110,17.875 110,17.875Z" style="fill:#1c3154;fill-rule:nonzero;"/><path d="M9280.5,6298.58c1.375,67.334 4.583,136.75 10.916,199.167c30.084,296.167 40.667,654 45.001,723c7.5,119.75 31.125,311.083 31.125,311.083c-0,0 46.958,44.542 138.416,23.292c0,-0 75.792,-275.583 92.708,-565.708c0.251,-4.792 0.501,-9.542 0.751,-14.334c1.958,-38.375 4.042,-82.25 6.125,-129.541c13.958,-316.792 29.083,-787.417 29.083,-787.417l-349.542,-82.083c0,-0 -8.041,154.708 -4.583,322.541Z" style="fill:#1d3667;fill-rule:nonzero;"/><path d="M9280.5,6298.58c88.584,152.834 257.417,434.375 325.042,546.959c13.958,-316.792 29.083,-787.417 29.083,-787.417l-349.542,-82.083c0,-0 -8.041,154.708 -4.583,322.541Z" style="fill:#131f35;fill-rule:nonzero;"/><path d="M9422.21,5508.25c-69.418,25.083 -197.209,60.625 -276.376,63.833c12.083,-2.291 100.251,-19.75 132.875,-59.125c35,-42.291 94,-157.25 140.875,-110.333c22.084,22.083 15.625,65.708 2.626,105.625Z" style="fill:#f0ac00;fill-rule:nonzero;"/><path d="M10009.5,6248.79c-0,-0 21.708,85.083 18.124,103.958c-3.541,18.917 -24.708,82.958 -37.916,98.833c-13.208,15.917 -13.75,-69.041 -22.542,-82.375c-8.791,-13.375 -4.042,31.709 -11.083,35.375c-7,3.709 -18.75,-34.125 -24,-47.541c-5.208,-13.375 18.792,-60.042 21,-93.5c2.208,-33.459 56.417,-14.75 56.417,-14.75Z" style="fill:#6d2c00;fill-rule:nonzero;"/><path d="M10178.8,7427.75c0,0 49.584,45.208 39.917,77.375c-9.667,32.167 -54.417,53.583 -60.458,92.875c-6.042,39.292 -30.209,60.708 -52,60.708l-103.75,0c0,0 -16.042,-27.625 22.667,-35.958c38.708,-8.333 53.291,-54.542 50.874,-97.375c-2.417,-42.875 3.625,-100.042 3.625,-100.042l82.209,-19.041l16.916,21.458Z" style="fill:#1c3154;fill-rule:nonzero;"/><path d="M9340.17,6065.29c0,-0 327.209,700.083 501.334,1007.25c174.125,307.166 228.542,392.916 228.542,392.916c-0,0 99.75,-39.291 108.791,-66.083c0,0 -66.583,-593.042 -183.166,-737.583c-65.917,-81.709 -143.292,-326.834 -146.917,-412.542c-3.625,-85.75 -80.083,-290.333 -80.083,-290.333l-428.501,106.375Z" style="fill:#1d3667;fill-rule:nonzero;"/><path d="M9279.21,6028.88c0,-0 106.542,114.667 287.584,149.292c79.458,15.208 240.75,29.875 280.749,-26.667c9.375,-13.292 9.459,-32.958 7.375,-63.667c-5.375,-79.791 -25.457,-234.083 65.168,-544.125c8.458,-28.833 14.124,-56.5 17.416,-82.875c19.792,-158.583 17.667,-278.333 -119.958,-342.291c-206.209,-95.834 -290.834,-17 -290.834,-17c-0,-0 -109.666,51.25 -159.749,200.583c-100.209,298.75 -87.751,726.75 -87.751,726.75Z" style="fill:#ffc83d;fill-rule:nonzero;"/><path d="M9693.75,5092.21c-34.709,24.667 -95.792,39.209 -154,10.084c-4.5,-2.25 -3.958,-33.042 -2.833,-63.292c1.124,-29.667 3.917,-58.792 3.917,-58.792l73.374,-48.166l70,-45.917c-8.375,157.917 25.209,194.875 9.542,206.083Z" style="fill:#6d2c00;fill-rule:nonzero;"/><path d="M9671.92,4951.29c-0,-0 -47.625,71.458 -135,87.708c1.124,-29.667 4.291,-62.375 4.291,-62.375l73,-44.583l57.709,19.25Z" style="fill:#4a2308;fill-rule:nonzero;"/><path d="M9475.12,4961.62c0,-0 177.5,66.25 217,-43.125c39.5,-109.375 89,-174.458 -22.667,-221.375c-111.625,-46.917 -148.833,-13.083 -171.041,20.208c-22.209,33.292 -68.417,224.25 -23.292,244.292Z" style="fill:#6d2c00;fill-rule:nonzero;"/><path d="M9802.71,4709.42c2.042,-1.584 6.167,-2.375 14.834,-1.125c-0,-0 -6,-5.625 -15.083,-7.667c0.541,-12.25 -1.626,-34.542 -21.042,-43.667c-0,0 9.833,8 8.749,20.917c-18.874,-29 -66.124,-56.75 -208.916,-73.417c-188.125,-21.958 -150.5,108.709 -129.333,127.584c21.208,18.875 89.249,-7.959 133.208,4.416c44,12.375 39.75,78.625 53.166,90.5c13.375,11.834 10.542,-5 32.876,-10.208c22.333,-5.25 17.583,29.125 7.292,50.083c-10.292,20.917 12.124,55.625 12.124,55.625l34.542,-25.041c34.542,-25.042 87.041,-149.667 79.583,-179.917c-0.666,-2.667 -1.333,-5.375 -2,-8.083Z" style="fill:#1a223a;fill-rule:nonzero;"/><path d="M9854.92,6087.83c-5.375,-79.791 -25.457,-234.083 65.168,-544.125c8.458,-28.833 14.124,-56.5 17.416,-82.875c-67.333,-22.208 -190.042,27.209 -190.042,27.209c-0,-0 -28.833,409.833 107.458,599.791Z" style="fill:#f0ac00;fill-rule:nonzero;"/><path d="M9854.67,5139.29c0,-0 82.833,30.125 135.708,249.458c34.917,144.958 99.167,357.958 106.417,424.917c7.25,66.958 -73.458,458.875 -73.458,458.875c-0,-0 -11.417,8.291 -39.293,2.708c-26.708,-5.333 -39.124,-23.375 -39.124,-23.375c-0,0 -19.334,-261.25 -14.333,-384.583c2.083,-51.25 -237.209,-375.292 -366.376,-417.042c-50.708,-16.375 290.459,-310.958 290.459,-310.958Z" style="fill:#ffc83d;fill-rule:nonzero;"/><path d="M8695.79,4855.33c-0,0 239.458,-6.833 515.833,44.042l28.833,-72.75l31.667,-79.708c0,-0 -277.417,-119.417 -444.167,-285.75l-132.166,394.166Z" style="fill:#ffe8ae;fill-rule:nonzero;"/><path d="M8831.75,4457.29l-137.5,405.875c-20.083,-5.959 -31.088,-27.542 -24.083,-47.334l120.999,-341c5.876,-16.5 24.542,-24.583 40.584,-17.541Z" style="fill:#f99746;fill-rule:nonzero;"/><path d="M8963,5157.38c26.708,5.375 52.959,-12.125 58.292,-38.875l47.333,-236.875c5.375,-26.708 -12.125,-52.958 -38.875,-58.292c-26.75,-5.333 -52.959,12.167 -58.334,38.875l-47.333,236.875c-5.333,26.709 12.167,52.959 38.917,58.292Z" style="fill:#f99746;fill-rule:nonzero;"/><path d="M8695.79,4855.33c-0,0 239.458,-6.833 515.833,44.042l28.833,-72.75c-259.625,-53 -544.666,28.708 -544.666,28.708Z" style="fill:#ffc83d;fill-rule:nonzero;"/><path d="M9135.21,4884.75l74.833,13.167c-1.166,0.041 69.501,13.75 92.667,-48.875c2.125,-4.292 3.459,-8.5 4.417,-13.5c18,-78.042 -24.833,-92.417 -24.833,-92.417l-96.334,-37.542l-30.583,108.292l0,0.375l-20.167,70.5Z" style="fill:#f99746;fill-rule:nonzero;"/><path d="M9135.21,4884.75l74.833,13.167c-1.166,0.041 69.501,13.75 92.667,-48.875c-42.333,-30.792 -147.333,-35.167 -147.333,-35.167l0,0.375l-20.167,70.5Z" style="fill:#ed7d2b;fill-rule:nonzero;"/><path d="M8969.38,4928.04c-0,-0 36.583,14.583 29.875,30.708c-6.708,16.083 -53.25,38.25 -60.583,25.542c-7.334,-12.709 7.667,-69.875 30.708,-56.25Z" style="fill:#6d2c00;fill-rule:nonzero;"/><path d="M9051,5062.67c-0,-0 6.916,-37.459 7.333,-54.667c0.417,-17.208 2.459,-31.25 -1.583,-31.75c-4.084,-0.458 -7,2.708 -8.667,8.25c-1.667,5.5 -7.999,39.833 -7.999,39.833l3.207,33.084l7.709,5.25Z" style="fill:#6d2c00;fill-rule:nonzero;"/><path d="M5430.46,5038.21l-207.376,2465.83c0,-0 -21.708,149.5 89.459,149.75c182.791,0.458 909.916,-0 909.916,-0c0,-0 -137.625,-31.125 -135.958,-101.125c2,-82.5 242.416,-2537.79 242.416,-2537.79l-898.457,23.333Z" style="fill:#f4af00;fill-rule:nonzero;"/><path d="M6290.88,7610.04c-35.958,0.125 -739.875,1.291 -917.875,-1c-77.583,-0.959 -91.208,-68.959 -91.833,-113c-0.334,-21.084 2.333,-36.709 2.333,-36.709l5.417,-64.083l13.75,-163.333l12.125,-144.334l15.583,-185.458l13.166,-156.5l147.334,-1752.17l898.458,-23.333c0,0 -101.25,1027.54 -172.875,1775.5c-8,83.333 -15.625,163.208 -22.625,237.833c-2.291,23.792 -4.5,47.084 -6.624,69.75c-6.626,70.75 -12.709,135.75 -18.001,193.125c-2.792,30.25 -5.333,58.334 -7.666,84.084c-9.167,100.875 -14.5,165.291 -14.584,177.541c-0.041,7.125 0.584,13.75 1.75,19.959c14.75,78.583 128.667,82.125 142.167,82.125Z" style="fill:#ffd979;fill-rule:nonzero;"/><path d="M3248.55,3696.4l505.15,2029.06l69.163,277.917l235.275,945.083l4371.03,0l-867.167,-3252.06l-4313.45,-0Z" style="fill:#ffe8ae;fill-rule:nonzero;"/><path d="M3248.55,3696.39l-70.009,23.333l786.534,3299.32l93.079,-70.584l-809.604,-3252.07Z" style="fill:#ffd979;fill-rule:nonzero;"/><path d="M3965.07,7019.04l4344.14,-0l119.959,-70.584l-4371.02,0l-93.079,70.584Z" style="fill:#f4af00;fill-rule:nonzero;"/><rect x="5490.58" y="7610.04" width="940.583" height="44.708" style="fill:#ffe8ae;fill-rule:nonzero;"/><path d="M6192.08,7019.04l-4.874,34.166l-884.542,178.709l12.125,-144.334l5.791,-68.541l871.5,-0Z" style="fill:#d59900;fill-rule:nonzero;"/><path d="M6290.88,7610.04l-758.333,-0c-67.75,-0.209 -124.084,-0.542 -159.542,-1c-77.583,-0.959 -91.208,-68.959 -91.833,-113l880.375,-165.625c-9.167,100.875 -14.5,165.291 -14.584,177.541l0,0.667c0,6.875 0.626,13.292 1.75,19.292c14.75,78.583 128.667,82.125 142.167,82.125Z" style="fill:#ffc42f;fill-rule:nonzero;"/><path d="M5860.25,7610.46c-114.333,0 -232.334,-0.125 -327.708,-0.416l758.333,-0c-18.709,0.083 -218.375,0.416 -430.625,0.416Z" style="fill:#8cabf1;fill-rule:nonzero;"/><path d="M3248.55,3696.39l4313.45,-0l699.833,2613.65l-4362.62,-0l-650.666,-2613.65Z" style="fill:#ffe8ae;fill-rule:nonzero;"/><path d="M8058.42,6196.75l-4038.71,-0l-144.316,-574.917l-55.834,-222.458l-22.766,-90.708l-148.334,-590.834l-7.687,-30.75l-78.409,-312.333l-35.079,-139.708l-29.925,-119.213l-70.146,-279.429l3980.46,-0l77.041,279.429l32.875,119.213l38.5,139.708l253.792,920.625l-0,0.042l21.5,78l10,36.208l175.25,635.542l41.792,151.583Z" style="fill:#ffc83d;fill-rule:nonzero;"/><path d="M7484.71,4115.85l-3987.34,-0l-70.142,-279.454l3980.48,-0l77,279.454Z" style="fill:#d99b00;fill-rule:nonzero;"/><path d="M3591.89,3962.68c-4.813,-19.292 6.929,-34.933 26.225,-34.933c19.296,0 38.833,15.641 43.641,34.933c4.813,19.296 -6.929,34.938 -26.221,34.938c-19.295,-0 -38.837,-15.642 -43.645,-34.938Z" style="fill:#e9f3fe;fill-rule:nonzero;"/><path d="M3707.97,3962.68c-4.813,-19.292 6.929,-34.933 26.225,-34.933c19.291,0 38.833,15.641 43.641,34.933c4.809,19.296 -6.929,34.938 -26.225,34.938c-19.291,-0 -38.833,-15.642 -43.641,-34.938Z" style="fill:#e9f3fe;fill-rule:nonzero;"/><path d="M3832.95,3962.68c-4.812,-19.292 6.929,-34.933 26.225,-34.933c19.292,0 38.829,15.641 43.642,34.933c4.812,19.296 -6.929,34.938 -26.225,34.938c-19.292,-0 -38.834,-15.642 -43.642,-34.938Z" style="fill:#e9f3fe;fill-rule:nonzero;"/><path d="M6615.88,2211.78c163.25,-191.658 414.958,-576.65 584.416,-773.808c34.875,-40.579 5.917,-103.204 -47.624,-103.204l-308.375,-0l290.874,-657.738c12.418,-28.079 -25.833,-50.458 -44.208,-25.858l-703.333,941.35c-20.5,27.462 1.917,66.116 35.958,61.925l349.083,-42.988l-207.708,570.563c-11.416,31.408 29.25,55.204 50.917,29.758Z" style="fill:#f77d48;fill-rule:nonzero;"/><path d="M5164,3379.14c36.709,-188.355 59.875,-538.217 98.709,-732.554c7.958,-40 -34.709,-70.75 -70.251,-50.734l-204.791,115.35l-52.834,-545.662c-2.291,-23.292 -36.041,-23.842 -39.083,-0.626l-115,888.305c-3.375,25.917 26,43.196 47.042,27.687l215.791,-159.141l75.458,456.649c4.167,25.138 40.084,25.73 44.959,0.726Z" style="fill:#ffe8ae;fill-rule:nonzero;"/><path d="M8234.83,6252.42l-3509.29,295.625c-266.5,22.458 -459.334,-249.167 -350.209,-493.334l1486.75,-3327.37c112.792,-252.43 459.501,-281.643 612.917,-51.642l2022.54,3031.72c148.416,222.458 3.75,522.541 -262.709,545Z" style="fill:#e6efff;fill-rule:nonzero;"/><path d="M6164.5,2653.34c-80.334,6.766 -147.917,54.741 -180.792,128.333l-1486.79,3327.41c-31.792,71.167 -23.834,151.584 21.291,215.167c45.125,63.583 118.459,97.625 196.125,91.083l3509.29,-295.666c77.708,-6.542 144.292,-52.375 178.125,-122.625c33.875,-70.209 28.25,-150.834 -15,-215.709l-2022.54,-3031.71c-44.749,-67.059 -119.416,-103.05 -199.708,-96.279Zm2081.5,3731.78l-3509.29,295.667c-172.584,14.541 -335.501,-61.084 -435.751,-202.334c-100.25,-141.208 -117.916,-319.958 -47.25,-478.083l1486.75,-3327.39c73.042,-163.5 223.209,-270.095 401.667,-285.128c178.458,-15.038 344.333,64.933 443.708,213.903l2022.54,3031.74c96.125,144.083 108.584,323.208 33.375,479.25c-75.208,156 -223.167,257.833 -395.75,272.375Z" style="fill:#f77d48;fill-rule:nonzero;"/><path d="M6624.83,5108.46l-505.5,42.584l-217.125,-1721.12l648.709,-54.658l73.916,1733.19Zm-542.583,634.875c-3.792,-45.208 0.75,-87.708 13.667,-127.458c12.916,-39.708 32.917,-74.875 60.042,-105.458c27.124,-30.542 60.708,-55.5 100.833,-74.75c40.083,-19.209 86.083,-31.084 138.083,-35.459c51.917,-4.375 99.625,-0.416 143.083,11.792c43.459,12.208 81.125,31.125 112.959,56.708c31.875,25.625 57.458,56.959 76.875,93.959c19.333,37 30.958,78.125 34.791,123.333c3.792,45.25 -0.792,87.417 -13.75,126.417c-13,39.083 -33.041,73.916 -60.125,104.458c-27.125,30.583 -61.083,55.542 -101.917,74.833c-40.791,19.292 -87.166,31.167 -139.083,35.542c-52,4.375 -99.333,0.417 -142.083,-11.833c-42.75,-12.25 -80.042,-31.209 -111.875,-56.834c-31.875,-25.583 -57.5,-56.541 -76.792,-92.916c-19.333,-36.334 -30.875,-77.125 -34.708,-122.334Z" style="fill:#f77d48;fill-rule:nonzero;"/><path d="M3903.12,5214c0,-0 11.004,-24.75 18.129,-36.458c7.125,-11.709 37.571,-46.042 42.75,-38.25c5.183,7.75 25.913,60.083 14.9,74.708c-11.012,14.667 0.713,40.167 -54.054,55.583l-21.725,-55.583Z" style="fill:#6d2c00;fill-rule:nonzero;"/><path d="M3294.48,5057.75c0,-0 280.363,234.042 389.688,212.375c85.479,-16.958 220.625,-59.833 220.625,-59.833c-0,-0 35.666,33.958 25.579,74.625c-0,-0 -172.175,162 -294.846,163.041c-191.737,1.625 -282.171,-95 -282.171,-95l-58.875,-295.208Z" style="fill:#ed7d2b;fill-rule:nonzero;"/><path d="M2802.78,7526.29c0,-0 8.142,131.291 33.542,133.166c3.379,0.25 128.833,0.25 128.833,0.25l160.146,-0.916c0,-0 -1.05,-38.625 -47.862,-46.75c-46.809,-8.167 -125.163,-41.084 -153.521,-102.959c-29.829,-65.083 -121.138,17.209 -121.138,17.209Z" style="fill:#113c68;fill-rule:nonzero;"/><path d="M2793.55,7535.38c0,0 48.684,16.292 86.692,16.292c42.4,-0 80.933,-11.542 80.933,-11.542c0,0 9.167,-88.625 59.604,-283.917c26.442,-102.375 64.204,-234 117.934,-397.541c148.541,-452 193.716,-716.417 197.837,-741.459c0.221,-1.291 0.308,-1.958 0.308,-1.958l-0.483,-0.208l-456.687,-200.542c-0,-0 56.445,622.958 -15.567,862.083c-10.092,33.417 -18.729,72.334 -26.142,114.542c-45.479,259.708 -44.429,644.25 -44.429,644.25Z" style="fill:#1d3667;fill-rule:nonzero;"/><path d="M3020.78,7256.21c26.442,-102.375 64.204,-234 117.934,-397.541c148.541,-452 193.716,-716.417 197.837,-741.459c-0.041,-0.75 -0.087,-1.458 -0.175,-2.166l-456.687,-200.542c-0,-0 56.445,622.958 -15.567,862.083c-10.092,33.417 156.658,479.625 156.658,479.625Z" style="fill:#131f35;fill-rule:nonzero;"/><path d="M3159.48,7526.29c0,-0 8.138,131.291 33.542,133.166c3.379,0.25 128.829,0.25 128.829,0.25l160.146,-0.916c-0,-0 -1.05,-38.625 -47.858,-46.75c-46.813,-8.167 -125.167,-41.084 -153.521,-102.959c-29.833,-65.083 -121.138,17.209 -121.138,17.209Z" style="fill:#15447c;fill-rule:nonzero;"/><path d="M3418.41,5929.17c0,-0 5.934,403.708 -63.912,899.333c-69.846,495.667 -46.167,706.042 -46.167,706.042c0,-0 -47.987,15.541 -67.354,17.125c-49.338,4.041 -99.925,-11.542 -99.925,-11.542c-0,0 -99.971,-495.833 -71.308,-743.917c28.662,-248.083 -136.896,-851.291 -136.896,-851.291l485.562,-15.75Z" style="fill:#1d3667;fill-rule:nonzero;"/><path d="M3094.58,4984.54l89.146,58.416l81.204,-22.958c14.842,-21.167 18.771,-62 18.988,-97.333c0.216,-35.125 -3.188,-64.834 -3.188,-64.834l-120.271,-53.083l-44.879,-19.792c0.133,0.709 3.492,36.875 3.971,42.125c8.383,93.75 -24.971,157.459 -24.971,157.459Z" style="fill:#6d2c00;fill-rule:nonzero;"/><path d="M3420.45,6041.42c-110.958,107.125 -530.892,89.125 -556.771,-28.917c-25.837,-118.042 28.225,-1004.83 217.763,-1060.54c39.333,-11.541 249.608,56.417 249.608,56.417c0,0 32.996,86.333 54.634,196.208c4.199,21.417 16.458,248 25.633,460c4.279,99.167 7.9,195.125 9.75,265.417c1.687,65.833 1.771,109.083 -0.617,111.417Z" style="fill:#f99746;fill-rule:nonzero;"/><path d="M3128.55,4828.75c24.404,41.25 110.012,77.375 155.371,93.917c0.216,-35.125 -3.188,-64.834 -3.188,-64.834l-120.271,-53.083c-26.587,-0.375 -42.783,5.583 -31.912,24Z" style="fill:#471d01;fill-rule:nonzero;"/><path d="M3326.1,4850.5c-0,-0 -193.788,60.458 -229.575,-60.792c-35.788,-121.291 -84.904,-195.125 37.312,-238.875c122.217,-43.708 160.021,-4.583 181.813,33c21.787,37.584 59.937,247.834 10.45,266.667Z" style="fill:#6d2c00;fill-rule:nonzero;"/><path d="M3308.03,4572.17c0,-0 -12.358,141.083 -41.541,134.958c-29.179,-6.125 -61.305,-19.208 -57.03,23.333c4.271,42.5 -28.379,115.459 -70.458,115.25c-90.246,-0.375 -188.304,-231.958 -163.596,-275.833c71.284,-126.708 435.659,-152.292 332.625,2.292Z" style="fill:#0b1b32;fill-rule:nonzero;"/><path d="M3279.53,4955.04c-2.5,-1.042 -144.262,-64.667 -160.842,-59.167c-16.579,5.458 -37.246,56.083 -37.246,56.083l249.626,56.459c-0,-0 -19.65,-39.959 -51.538,-53.375Z" style="fill:#ed7d2b;fill-rule:nonzero;"/><path d="M4162.1,5641.79l-794.671,748.208c-15.579,14.667 -35.221,19.333 -43.65,10.375l-26.825,-28.5c-8.429,-8.958 -2.583,-28.25 12.992,-42.917l794.675,-748.208c15.575,-14.667 35.22,-19.333 43.646,-10.375l26.82,28.458c8.417,8.959 2.584,28.292 -12.987,42.959Z" style="fill:#1f4d84;fill-rule:nonzero;"/><path d="M3716.15,6061.67l-348.721,328.333c-15.579,14.667 -35.221,19.333 -43.65,10.375l-26.825,-28.5c-8.429,-8.958 -2.583,-28.25 12.992,-42.917l348.72,-328.333l57.484,61.042Z" style="fill:#ffc83d;fill-rule:nonzero;"/><path d="M4157.48,4784.46c137.146,-145.833 332.608,-203.916 516.15,-172.166c106.958,18.541 209.792,67.5 294.75,147.458c230.792,217.083 241.833,580.125 24.708,810.917c-79.916,84.916 -179.583,140.083 -285.166,165.083c-181.292,42.917 -379.917,-3.125 -525.75,-140.333c-230.746,-217.125 -241.838,-580.167 -24.692,-810.959Zm-178.029,574.834c30.516,100.541 87.004,194.708 169.037,271.916c250.559,235.709 644.767,223.625 880.433,-26.875c232.626,-247.25 223.959,-634.291 -17.083,-870.958c-3.208,-3.208 -6.458,-6.333 -9.791,-9.417c-250.5,-235.708 -644.667,-223.75 -880.367,26.792c-158.554,168.5 -205.05,402 -142.229,608.542Z" style="fill:#1f4d84;fill-rule:nonzero;"/><path d="M4380.21,5717.21c-40.837,-14.708 -80.379,-34.25 -117.75,-58.625c-28.083,-18.333 -55,-39.375 -80.291,-63.166c-230.746,-217.125 -241.838,-580.167 -24.692,-810.959c9.033,-9.625 18.317,-18.833 27.858,-27.666c109.375,-101.625 249.542,-152.917 390,-152.917c32.875,-0 65.75,2.833 98.292,8.458c59.917,10.375 118.583,30.292 173.5,59.917l-466.917,1044.96Z" style="fill:#93b5f5;fill-rule:nonzero;"/><path d="M4659.58,5745.04l394.708,-883.375c1.583,2.375 3.166,4.791 4.708,7.208c51.084,79.917 80.5,169.958 88.042,261.583c12.791,156.209 -38.084,317.042 -153.959,440.209c-79.916,84.916 -179.583,140.083 -285.166,165.083c-15.959,3.792 -32.126,6.875 -48.333,9.292Z" style="fill:#ccdffc;fill-rule:nonzero;"/><path d="M4575.12,5751.25c-18.166,-0 -36.333,-0.875 -54.458,-2.583c-47.625,-4.5 -94.834,-15 -140.459,-31.459l466.917,-1044.96c21.667,11.667 42.791,24.833 63.125,39.5c20.125,14.542 39.583,30.5 58.125,48c33.208,31.208 61.875,65.458 85.917,101.917l-394.708,883.375c-27.959,4.125 -56.209,6.208 -84.459,6.208Z" style="fill:#d5a6a1;fill-rule:nonzero;"/><path d="M4575.17,5751.25c-18.167,-0 -36.375,-0.875 -54.5,-2.583c18.125,1.708 36.292,2.583 54.458,2.583c28.25,-0 56.5,-2.083 84.459,-6.208c16.207,-2.417 32.374,-5.5 48.333,-9.292c105.583,-25 205.25,-80.167 285.166,-165.083c115.875,-123.167 166.75,-284 153.959,-440.209c12.791,156.209 -38.084,317.042 -153.917,440.209c-79.958,84.916 -179.625,140.083 -285.208,165.125c-43.542,10.291 -88.167,15.458 -132.75,15.458Zm-312.709,-92.667c-28.125,-18.333 -55,-39.375 -80.291,-63.166c-230.759,-217.125 -241.834,-580.167 -24.704,-810.959c9.041,-9.625 18.329,-18.833 27.87,-27.666c-9.541,8.833 -18.825,18.041 -27.858,27.666c-217.146,230.792 -206.054,593.834 24.692,810.959c25.291,23.791 52.208,44.833 80.291,63.166Zm796.542,-789.708c-1.542,-2.417 -3.125,-4.833 -4.708,-7.208c-24.042,-36.459 -52.709,-70.709 -85.917,-101.917c-18.542,-17.5 -38,-33.458 -58.125,-48c20.125,14.542 39.583,30.5 58.125,47.958c35.375,33.292 65.625,70.042 90.625,109.167Z" style="fill:#698ebf;fill-rule:nonzero;"/><path d="M3421.07,5930c-437.871,-312 -401.459,-728.375 -401.459,-728.375c160.038,90.25 318.846,289.833 391.709,462.958c4.279,99.167 7.9,195.125 9.75,265.417Z" style="fill:#ed7d2b;fill-rule:nonzero;"/><path d="M3853.24,5787.92c30.88,-7.125 51.617,-30.459 55.925,-34.542c0,-0 13.167,0.875 -2.158,28.958c-1.283,2.375 -4.133,8.417 -6.279,12.667c-0.879,1.75 0.342,3.792 2.292,3.917c17.82,1.375 35.729,-5.667 70.058,1.458c4.737,1 6.113,12.333 5.933,17.167c-0.308,8.208 0.279,17.375 -9.229,29.916c-5.529,7.292 -20.962,15.167 -55.329,28.959c-13.092,5.291 -50.525,1.333 -85.612,-10.75l-28.034,-12.959l8.696,-52.125l7.042,1.5c11.183,2.334 25.037,-11.333 36.695,-14.166Z" style="fill:#6d2c00;fill-rule:nonzero;"/><path d="M3155.5,5008.42c0,-0 -393.437,74.916 115.754,644.666c81.434,91.125 521.413,209.75 521.413,209.75c-0,0 44.625,-37.958 22.129,-68.708c0,0 -302.938,-220 -369.592,-254.958c-29.987,-15.75 -116.379,-351.125 -165.258,-431.875c-48.879,-80.792 -124.446,-98.875 -124.446,-98.875Z" style="fill:#f99746;fill-rule:nonzero;"/><path d="M3913.79,5220.92c-0,-0 12.866,-24.584 15.379,-37.542c2.512,-13 18.716,-50.833 25.391,-57.5c2.675,-2.667 11.484,0.792 12.526,12.25c0.449,5 -1.996,14.083 -6.321,24.917c-7.038,17.583 -5.88,41.458 -8.325,49.416c-6.092,19.834 -38.65,8.459 -38.65,8.459Z" style="fill:#6d2c00;fill-rule:nonzero;"/><path d="M4070.37,4244.75c-6.692,7.667 -7.55,16.25 -4.242,25.375l0.067,0.167c6.116,16.921 26.337,35.791 49.825,54.666c3,2.417 5.671,4.625 7.996,6.667c0.612,0.542 1.225,1.083 1.795,1.625c0.475,0.417 0.929,0.838 1.384,1.25c21.904,20.208 13.654,24.833 53.016,65.833c44.834,46.709 75.75,47.542 84.542,43.292c7.454,-3.625 -7.667,-28.375 -24.375,-56.208c-0.833,-1.375 -1.625,-2.709 -2.458,-4.084c-2.209,-3.708 -4.459,-7.458 -6.667,-11.166c-19.583,-33.5 -14.542,-49.25 -9.875,-99.079c3.792,-40.546 63.083,-226.35 63.083,-226.35l-86,-14.846c0,-0 -25.916,147.983 -54.483,170.733c-15.267,12.167 -32.346,12.292 -47.017,21.292c-1.037,0.625 -2.054,1.291 -3.054,1.958c-8.333,5.5 -16.829,11.208 -23.537,18.875Z" style="fill:#6d2c00;fill-rule:nonzero;"/><path d="M4070.37,4244.75c-6.692,7.667 -7.55,16.25 -4.242,25.375l0.067,0.167c7.491,16.879 27.204,35.708 49.908,54.5c2.967,2.462 5.583,4.75 7.913,6.833c0.612,0.542 1.225,1.083 1.795,1.625c0.475,0.417 0.929,0.838 1.384,1.25c21.904,20.208 13.654,24.833 53.016,65.833c44.834,46.709 75.75,47.542 84.542,43.292c7.454,-3.625 -7.667,-28.375 -24.375,-56.208c-8.75,-3.209 -49.333,-19.709 -80.004,-59c-26.029,-33.25 -43.7,-75.584 -61.409,-101.625c-1.949,-0.334 -3.108,-0.584 -5.054,-0.917c-8.337,5.5 -16.829,11.208 -23.541,18.875Z" style="fill:#131f35;fill-rule:nonzero;"/><path d="M4763.92,4191.29c5.291,26.541 43.166,22.125 85.416,11.833c42.292,-10.333 32.25,1.958 92.417,-4.708c60.167,-6.625 78.417,-29.042 80.25,-38.009c1.667,-7.937 -28.083,-10.75 -59.958,-14.433c-4,-0.45 -8.042,-0.95 -12.084,-1.446c-36,-4.533 -62.375,-27.775 -95.041,-46.871c-31,-18.083 -77.209,-91.741 -77.209,-91.741l-82.5,6.508c0,0 43.25,65.787 60,94.392c9.834,16.825 9.334,39.066 8.083,56.241c-0.624,9.317 -1.249,18.859 0.626,28.234Z" style="fill:#6d2c00;fill-rule:nonzero;"/><path d="M4849.33,4203.12c42.292,-10.333 32.25,1.958 92.417,-4.708c60.167,-6.625 78.417,-29.042 80.25,-38.009c1.667,-7.937 -28.083,-10.75 -59.958,-14.433l-0.292,0.613c-0,-0 -36.125,25.579 -86.208,26.745c-40.834,1 -84.042,-10.721 -112.251,-10.275c-0.624,9.317 -1.249,18.859 0.626,28.234c5.291,26.541 43.166,22.125 85.416,11.833Z" style="fill:#131f35;fill-rule:nonzero;"/><path d="M4447.83,3663.5l-77.208,207.563l-100.792,271.012c0,0 -27.333,2.629 -53.5,-4.908c-24.125,-6.971 -51.754,-25.205 -51.754,-25.205c0,0 28.046,-291.02 80.296,-458.062c13.375,-42.879 28.371,-77.562 44.917,-97.079c80.916,-95.55 158.041,106.679 158.041,106.679Z" style="fill:#131f35;fill-rule:nonzero;"/><path d="M4369.54,3333.8c-43.916,-14.179 -158.499,-0.275 -282.791,22.179c-34.338,6.2 -68.946,-9.492 -87.025,-39.337l-312.758,-24.534c-0,0 -103.288,228.838 -46.834,374.692c8.296,21.437 26.517,34.82 54.646,35.283c0,0 188.996,0.329 249.442,0.35c155.541,0.05 329.237,-106.808 351.696,-111.291c36.745,-7.342 51.458,66.195 88.167,143.416c36.749,77.225 345.499,342.046 345.499,342.046c0,-0 47.459,0.487 67.083,-6.858c21.084,-7.9 28.792,-18.171 28.792,-18.171c0,-0 -341.958,-680.967 -455.917,-717.775Z" style="fill:#1d3667;fill-rule:nonzero;"/><path d="M3966.81,2398.18c-23.22,-13.833 -45.862,-15.954 -59.737,-15.562c-9.654,0.271 -19.292,-0.358 -28.846,-1.763c-119.362,-17.546 -191.308,155.817 -195.537,208.209c-7.767,96.179 -58.655,110.829 -130.296,171.041c-143.646,120.734 -101.583,261.1 -23.079,313.28c47.104,31.304 130.162,0.041 130.162,0.041c1.175,0.817 227.159,-126.229 338.554,-187.516c166.98,-23.675 35.842,-447.771 -31.221,-487.73Z" style="fill:#131f35;fill-rule:nonzero;"/><path d="M3904.7,2833.68c0.492,0.321 -54.804,19.175 -91.767,2.792c-34.775,-15.383 -61.104,-72.612 -60.587,-72.642c15.825,-0.725 33.196,-14.554 46.604,-105.308l6.737,2.416l113.259,40.8c-0,0 -8.221,36.346 -13.538,70.946c-4.479,29.054 -6.891,56.888 -0.708,60.996Z" style="fill:#6d2c00;fill-rule:nonzero;"/><path d="M3918.95,2701.74c-0,0 -4.525,19.613 -11.133,56.242c-65.059,-11.733 -92.976,-61.862 -102.126,-97.042l113.259,40.8Z" style="fill:#4d2409;fill-rule:nonzero;"/><path d="M3935.8,2737.82c0,-0 -154.975,-20.858 -140.5,-117.167c14.475,-96.308 4.217,-163.862 103.775,-154.617c99.558,9.242 113.217,48.875 116.204,82.197c2.988,33.32 -38.796,192.528 -79.479,189.587Z" style="fill:#6d2c00;fill-rule:nonzero;"/><path d="M4009.65,2495.43c0,-0 -99.237,85.466 -166.725,92.333c-67.487,6.871 -93.025,-14.8 -93.025,-14.8c0,-0 39.784,-33.009 63.738,-86.296c7.062,-15.704 21.979,-26.488 39.133,-27.963c48.183,-4.142 139.533,-6.012 156.879,36.726Z" style="fill:#131f35;fill-rule:nonzero;"/><path d="M3947.64,2487.76c-0,0 33.175,32.1 43.621,55.905c10.079,22.975 13.083,77.912 5.045,99.728c0,0 51.746,-100.533 22.484,-149.395c-31.025,-51.813 -71.15,-6.238 -71.15,-6.238Z" style="fill:#131f35;fill-rule:nonzero;"/><path d="M4035.12,3062.03c-4.796,313.717 -1.371,248.162 -35.7,277.917c-8.271,7.166 -31.517,11.429 -62.112,13.441c-96.2,6.351 -265.296,-9.554 -271.721,-27.337c-22.167,-61.521 -6.496,-80.625 -24.975,-174.804c-1.925,-10.017 -4.313,-20.859 -7.109,-32.667c-15.412,-64.688 -30.429,-86.696 24.367,-190.592c49.692,-94.112 101.308,-170.491 105.946,-167.733c130.992,77.821 141.579,12.454 141.579,12.454c0,0 132.075,136.3 129.725,289.321Z" style="fill:#f99746;fill-rule:nonzero;"/><path d="M4370.62,3871.06l-100.792,271.012c0,0 -27.333,2.629 -53.5,-4.908c-24.125,-6.971 -51.754,-25.205 -51.754,-25.205c0,0 28.046,-291.02 80.296,-458.062l125.75,217.163Z" style="fill:#1d3667;fill-rule:nonzero;"/><path d="M3905.41,2772.68c0,0 134.805,22.905 150.613,80.955c15.812,58.05 67.804,410.379 67.804,410.379c0,-0 -38.029,37.112 -69.679,5.442c-31.65,-31.672 -99.525,-329.672 -99.525,-329.672l-49.213,-167.104Z" style="fill:#f99746;fill-rule:nonzero;"/><path d="M3937.31,3353.38c-96.2,6.351 -265.296,-9.554 -271.721,-27.337c-22.167,-61.521 -6.496,-80.625 -24.975,-174.804l46.446,-130.638c-0,-0 -7.725,145.488 35.166,183.771c42.85,38.279 175.646,73.929 196.492,105.912c10.054,15.346 16.666,30.738 18.592,43.096Z" style="fill:#ed7d2b;fill-rule:nonzero;"/><path d="M3827.12,3292.15c-0,-0 94.912,-21.1 110.22,-12.67c15.313,8.424 52.725,39.112 57.409,49.783c4.679,10.675 -34.092,-8.113 -46.704,-11.496c-8.167,-2.196 -29.671,5.267 -40.317,8.812c-44.792,14.913 -72.237,7.225 -72.237,7.225l-8.371,-41.654Z" style="fill:#6d2c00;fill-rule:nonzero;"/><path d="M3763.74,2760.18c-0,0 -127.434,7.805 -171.567,69.317c-62.129,86.587 -185.442,455.658 -114.858,504.909c79.487,55.466 361.841,14.629 361.841,14.629c0,-0 9.413,-43.917 -3.654,-65.163c-13.062,-21.25 -225.491,-55.638 -235.291,-65.446c-9.805,-9.808 122.625,-191.154 122.633,-220.566c0.012,-29.417 40.896,-237.68 40.896,-237.68Z" style="fill:#f99746;fill-rule:nonzero;"/><path d="M3941.93,3305.9c0,0 19.875,25.654 26.392,28.721c6.516,3.062 10.729,2.3 10.729,2.3l-13.392,-24.125l-23.729,-6.896Z" style="fill:#6d2c00;fill-rule:nonzero;"/><path d="M3937.34,3279.48l57.805,28.091c-0,-0 -2.459,4.025 -9.58,3.7c-7.116,-0.329 -25.07,-6.9 -25.07,-6.9l-23.155,-24.891Z" style="fill:#6d2c00;fill-rule:nonzero;"/><path d="M4431,3345.65l-603.904,-0.208l-0.004,13.325l598.533,0.208l5.375,-13.325Z" style="fill:#131f35;fill-rule:nonzero;"/><path d="M3968.31,3358.82l457.317,0.158l137.708,-342.054l-456.629,-0.158l-138.396,342.054Z" style="fill:#131f35;fill-rule:nonzero;"/><path d="M4310.25,3187.89c3.462,-12.025 -3.496,-21.776 -15.538,-21.78c-12,-0.004 -24.546,9.742 -28,21.763c-3.458,12.025 3.5,21.775 15.5,21.779c12.042,0.004 24.584,-9.737 28.038,-21.762Z" style="fill:#fff;fill-rule:nonzero;"/><path d="M7405.29,4648.92c-61.584,-20.459 -104.25,5.333 -104.25,5.333c-177.375,7.292 -183.959,189.125 -163.125,256.792c29.25,95.041 -74.25,169.958 40.499,208.416c133.167,44.625 244.917,-8.291 237.292,14.667c421.125,33.208 129.709,-438.708 -10.416,-485.208Z" style="fill:#0b1b32;fill-rule:nonzero;"/><path d="M7221.33,5533.25c0,-0 -16.875,33.375 -47.416,71.708c-36.875,46.167 -230.25,-63.375 -213.625,-71.708c16.666,-8.333 113.875,-288.333 137,-323.5c23.166,-35.208 101.999,-53.458 101.999,-53.458l22.042,376.958Z" style="fill:#f99746;fill-rule:nonzero;"/><path d="M7874,7421.58c0,0 53.375,48.75 42.958,83.334c-10.417,34.625 -58.583,57.708 -65.083,100c-6.542,42.291 -32.583,65.375 -56,65.375l-111.75,-0c-0,-0 -17.25,-29.75 24.417,-38.75c41.667,-8.959 57.374,-58.667 54.791,-104.834c-2.625,-46.125 3.875,-107.666 3.875,-107.666l88.542,-20.5l18.25,23.041Z" style="fill:#1f447f;fill-rule:nonzero;"/><path d="M7422.17,7442.29c0,-0 19.209,206.375 -4.207,217.916l-299.918,-0.625c0,0 0,-34.625 48.167,-42.291c48.167,-7.709 132.792,-35.917 147.125,-98.75c14.334,-62.792 108.833,-76.25 108.833,-76.25Z" style="fill:#1c3154;fill-rule:nonzero;"/><path d="M7652.88,5394.04c-0,-0 4.5,63 -0,138.625c-2.958,50.125 -53.666,117.25 -60.833,133.833c-18.084,41.667 -38.417,48.458 -38.417,48.458l-157.459,38.584l-55.374,13.541l-174.625,-52.125c-0,0 -79.5,-222 -47.584,-346.958c31.917,-124.958 80.708,-211.708 80.708,-211.708c0,-0 118.668,-26.667 328.001,-11.834l125.583,249.584Z" style="fill:#f99746;fill-rule:nonzero;"/><path d="M7667.88,5534.42c-2.959,50.125 -68.666,115.5 -75.833,132.083c-18.084,41.667 -38.417,48.458 -38.417,48.458l-157.459,38.584l-28.458,-81.5c0,-0 230.084,-60.417 193.084,-273.375l107.083,135.75Z" style="fill:#ed7d2b;fill-rule:nonzero;"/><path d="M7177.29,5748.62c-0,-0 -86.458,269.167 -92.042,360.792c-5.542,91.625 165.292,1301.75 172.167,1343.96c6.5,39.833 55.916,65.167 55.916,65.167c0,-0 22.709,13.416 55.167,4.25c45,-12.709 59.25,-27.917 59.25,-27.917c0,0 67.292,-863.042 25.625,-1171.33c-41.625,-308.292 -42.125,-574.917 -42.125,-574.917l-233.958,-0Z" style="fill:#131f35;fill-rule:nonzero;"/><path d="M7543.62,5740.62c-0,0 131.917,176.958 144.208,296.583c12.292,119.667 19.292,539.875 45.5,656.5c26.167,116.625 122.417,341.042 122.417,704.834c0,-0 -10,20.833 -40.875,31.916c-9.875,3.584 -23.125,7 -35.959,9.959c-25.5,5.833 -51.624,-6.584 -63.249,-30c-65.084,-131.042 -272.375,-553.584 -283,-641.292c-7.5,-62.083 -72.959,-472.917 -215.709,-714c-34.291,-57.875 21.042,-288.042 21.042,-288.042l305.625,-26.458Z" style="fill:#1d3667;fill-rule:nonzero;"/><path d="M7163.46,5707.08c0,0 34.709,27.459 103.667,28.875c82.375,1.625 286.5,-21 286.5,-21c-0,0 9.042,25.334 8.708,52.084c0,-0 -249.291,62.875 -393.75,9.166c0,0 -18.625,-35.041 -5.125,-69.125Z" style="fill:#131f35;fill-rule:nonzero;"/><path d="M7247.38,5734.29c-13.833,-0 -25.125,13.5 -25.125,30.083c-0,16.583 11.292,30.083 25.125,30.083c13.875,0 25.125,-13.5 25.125,-30.083c0,-16.583 -11.25,-30.083 -25.125,-30.083Zm-0,72.625c-20.708,-0 -37.583,-19.084 -37.583,-42.542c-0,-23.458 16.875,-42.542 37.583,-42.542c20.75,0 37.583,19.084 37.583,42.542c0,23.458 -16.833,42.542 -37.583,42.542Z" style="fill:#fff;fill-rule:nonzero;"/><path d="M7427.46,5884.29l-374.666,3.5l-184.333,-433.25l374.666,-3.5l184.333,433.25Z" style="fill:#b5453c;fill-rule:nonzero;"/><path d="M7378.46,5688.5l-27.458,-33.75c-0,0 -18.583,-16.583 -32.083,-19.375c-13.458,-2.833 -41.959,-19.25 -44.708,-14.625c-2.751,4.625 21.875,37.625 21.875,37.625l1.249,0.208c-28.292,21.25 -99.708,2.5 -108.5,11.167c-10.708,10.5 14.709,33.25 28.334,46.042c13.625,12.75 52.583,34.041 82.958,24.583c22.167,-6.917 57.125,-13.958 57.125,-13.958l21.208,-37.917Z" style="fill:#6d2c00;fill-rule:nonzero;"/><path d="M6896.62,5530.75c-0,0 23.542,-26.75 38.541,-13.917c14.959,12.834 -3.916,76 -18.208,69.584c-14.25,-6.417 -28.541,-47.834 -20.333,-55.667Z" style="fill:#6d2c00;fill-rule:nonzero;"/><path d="M7527.29,5144.46c-0,0 107.25,11.834 184.25,151.667c60.666,110.292 164.458,313.583 125.291,371.042c-17.208,25.208 -181.958,114.916 -499.75,63.625c0,-0 5,-40.125 30.625,-58.75c0,-0 267.458,-85.834 267,-102.917c-0.875,-32.333 -36.125,-60.25 -185.541,-209.667c-40.625,-40.666 78.125,-215 78.125,-215Z" style="fill:#f99746;fill-rule:nonzero;"/><path d="M7444.75,5150.12c3.708,-4.958 -1.042,-20.708 -6.959,-50.042c-5.333,-26.583 -14.374,-67.708 -14.166,-113.958l-7.917,1.333l-132.916,22.375c-0,0 3,35.542 3.083,69l0.042,0.834c0.125,29.083 -7.875,73.041 1.958,78.791c50.334,29.5 142.708,10.709 156.875,-8.333Z" style="fill:#6d2c00;fill-rule:nonzero;"/><path d="M7282.79,5009.83c-0,0 2.625,50.125 2.708,83.584c74.417,-1.792 114.083,-74 130.208,-105.959l-132.916,22.375Z" style="fill:#4a240a;fill-rule:nonzero;"/><path d="M7274.75,5069.58c-0,0 174.25,-24.791 157.125,-133.083c-17.125,-108.292 -6.166,-184.417 -118.125,-173.167c-112,11.292 -127.041,56 -130.125,93.542c-3.042,37.542 45.375,216.375 91.125,212.708Z" style="fill:#6d2c00;fill-rule:nonzero;"/><path d="M7234.17,4773.29c0,-0 67.792,119.458 143.834,126.583c76,7.167 104.583,-17.458 104.583,-17.458c0,-0 -63.124,-35.584 -87.125,-111.417c0,-0 -135.041,-63.875 -161.292,2.292Z" style="fill:#0b1b32;fill-rule:nonzero;"/><path d="M7247.58,4781.75c-0,-0 -33.167,18.792 -43.584,46.833c-10.208,27.459 -17,62.709 -7.667,103.167c0,-0 -49.625,-80.625 -17.125,-135.875c34.5,-58.625 68.376,-14.125 68.376,-14.125Z" style="fill:#0b1b32;fill-rule:nonzero;"/><path d="M11086.9,7685.88l-9659.76,0c-6.641,0 -12.075,-5.458 -12.075,-12.083l0,-6.959c0,-6.666 5.434,-12.083 12.075,-12.083l9659.76,-0c6.666,-0 12.083,5.417 12.083,12.083l0,6.959c0,6.625 -5.417,12.083 -12.083,12.083Z" style="fill:#131f35;fill-rule:nonzero;"/></g></svg>