<?xml version="1.0" encoding="UTF-8" standalone="no"?><!DOCTYPE svg PUBLIC "-//W3C//DTD SVG 1.1//EN" "http://www.w3.org/Graphics/SVG/1.1/DTD/svg11.dtd"><svg width="100%" height="100%" viewBox="0 0 782 782" version="1.1" xmlns="http://www.w3.org/2000/svg" xmlns:xlink="http://www.w3.org/1999/xlink" xml:space="preserve" xmlns:serif="http://www.serif.com/" style="fill-rule:evenodd;clip-rule:evenodd;stroke-linecap:round;stroke-linejoin:round;stroke-miterlimit:1.5;"><rect id="Artboard2" x="0" y="0" width="781.589" height="781.589" style="fill:none;"/><path d="M400.35,190.567c-5.913,-3.414 -13.198,-3.414 -19.111,-0c-24.325,14.043 -89.343,51.582 -127.319,73.507c-5.913,3.414 -9.556,9.723 -9.556,16.551c0,6.828 3.643,13.137 9.556,16.551c37.976,21.926 102.994,59.464 127.319,73.508c5.913,3.414 13.198,3.414 19.111,-0c24.325,-14.044 89.343,-51.582 127.319,-73.508c5.913,-3.414 9.556,-9.723 9.556,-16.551c-0,-6.828 -3.643,-13.137 -9.556,-16.551c-37.976,-21.925 -102.994,-59.464 -127.319,-73.507Z" style="fill:#fff;"/><path d="M378.156,409.126c0,-6.828 -3.643,-13.138 -9.556,-16.551c-24.324,-14.044 -89.342,-51.583 -127.319,-73.508c-5.913,-3.414 -13.198,-3.414 -19.111,-0c-5.913,3.414 -9.556,9.723 -9.556,16.551c0,43.851 0,118.928 0,147.015c0,6.828 3.643,13.137 9.556,16.551c24.324,14.044 89.343,51.582 127.319,73.508c5.913,3.414 13.198,3.414 19.111,-0c5.913,-3.414 9.556,-9.723 9.556,-16.551l0,-147.015Z" style="fill:#fff;"/><path d="M559.455,499.205c5.913,-3.414 9.555,-9.724 9.555,-16.551c0,-28.099 0,-103.227 0,-147.097c0,-6.828 -3.642,-13.137 -9.555,-16.551c-5.913,-3.414 -13.199,-3.414 -19.112,-0c-37.993,21.935 -103.055,59.499 -127.389,73.548c-5.913,3.414 -9.556,9.723 -9.556,16.551l-0,147.097c-0,6.828 3.643,13.137 9.556,16.551c5.913,3.414 13.198,3.414 19.111,-0c37.993,-21.935 103.055,-59.499 127.39,-73.548Z" style="fill:#fff;"/><path d="M281.798,81.057l-121.018,0c-21.143,0 -41.421,8.4 -56.372,23.351c-14.951,14.951 -23.351,35.229 -23.351,56.372l0,121.018" style="fill:none;stroke:#fff;stroke-width:32.96px;"/><path d="M81.057,499.791l0,121.018c0,21.144 8.4,41.422 23.351,56.373c14.951,14.95 35.229,23.35 56.372,23.35l121.018,-0" style="fill:none;stroke:#fff;stroke-width:32.96px;"/><path d="M499.791,700.532l121.018,-0c21.144,-0 41.422,-8.4 56.373,-23.35c14.95,-14.951 23.35,-35.229 23.35,-56.373l-0,-121.018" style="fill:none;stroke:#fff;stroke-width:32.96px;"/><path d="M700.532,281.798l-0,-121.018c-0,-21.143 -8.4,-41.421 -23.35,-56.372c-14.951,-14.951 -35.229,-23.351 -56.373,-23.351l-121.018,0" style="fill:none;stroke:#fff;stroke-width:32.96px;"/></svg>