<?xml version="1.0" encoding="UTF-8" standalone="no"?><!DOCTYPE svg PUBLIC "-//W3C//DTD SVG 1.1//EN" "http://www.w3.org/Graphics/SVG/1.1/DTD/svg11.dtd"><svg width="100%" height="100%" viewBox="0 0 344 285" version="1.1" xmlns="http://www.w3.org/2000/svg" xmlns:xlink="http://www.w3.org/1999/xlink" xml:space="preserve" xmlns:serif="http://www.serif.com/" style="fill-rule:evenodd;clip-rule:evenodd;stroke-linejoin:round;stroke-miterlimit:2;"><path d="M120.866,182.988c-0.062,-0 -1.382,-0.024 -1.843,-0.004c-5.671,0.247 -10.2,4.869 -10.2,10.601c-0,5.896 4.78,10.676 10.676,10.676l179.282,-0c3.101,-0 6.075,1.231 8.267,3.424c2.193,2.192 3.424,5.167 3.425,8.268c-0.001,3.1 -1.232,6.075 -3.425,8.268c-2.192,2.192 -5.166,3.424 -8.267,3.424l-179.282,-0c-18.811,-0 -34.06,-15.249 -34.06,-34.06c-0,-11.72 5.919,-22.058 14.931,-28.185l-23.7,-69.826c-0.105,-0.197 -22.392,-65.703 -22.392,-65.703c-1.541,-4.533 -5.797,-7.581 -10.584,-7.581l-32.552,-0c-6.153,-0 -11.142,-4.991 -11.142,-11.145c0,-6.154 4.989,-11.145 11.142,-11.145l41.411,0c8.428,-0 15.917,5.374 18.617,13.357l10.454,30.919l257.843,0c1.366,0 2.648,0.659 3.443,1.769c0.796,1.11 1.007,2.535 0.568,3.829l-40.542,119.443c-2.788,8.215 -10.491,13.671 -19.166,13.671l-162.904,-0Zm194.577,-116.576c-0,-0 -226.249,-0 -226.25,-0l30.112,88.854c1.144,3.378 4.314,5.65 7.881,5.65l150.264,0c3.567,0 6.737,-2.272 7.882,-5.65l30.111,-88.854Zm-175.724,47.252c-0.08,-2.043 1.24,-6.122 3.449,-8.33c2.209,-2.209 5.204,-3.45 8.328,-3.45l101.644,-0c3.124,-0 6.119,1.241 8.328,3.45c2.209,2.208 3.45,5.206 3.45,8.33c-0,3.124 -1.241,6.122 -3.45,8.33c-2.209,2.209 -5.204,3.45 -8.328,3.45l-101.644,0c-3.124,0 -6.119,-1.241 -8.328,-3.45c-2.209,-2.208 -3.505,-5.801 -3.449,-8.33Zm-5.598,124.033c12.953,0 23.469,10.516 23.469,23.469c0,12.953 -10.516,23.469 -23.469,23.469c-12.953,0 -23.469,-10.516 -23.469,-23.469c0,-12.953 10.516,-23.469 23.469,-23.469Zm0,18.089c-2.969,-0 -5.38,2.411 -5.38,5.38c-0,2.97 2.411,5.381 5.38,5.381c2.97,-0 5.38,-2.411 5.38,-5.381c0,-2.969 -2.41,-5.38 -5.38,-5.38Zm133.779,-18.089c12.953,0 23.469,10.516 23.469,23.469c0,12.953 -10.516,23.469 -23.469,23.469c-12.953,0 -23.469,-10.516 -23.469,-23.469c-0,-12.953 10.516,-23.469 23.469,-23.469Zm0,18.089c-2.969,-0 -5.38,2.411 -5.38,5.38c-0,2.97 2.411,5.381 5.38,5.381c2.97,-0 5.38,-2.411 5.38,-5.381c0,-2.969 -2.41,-5.38 -5.38,-5.38Z" style="fill:#fff;"/></svg>