<?xml version="1.0" encoding="UTF-8" standalone="no"?><!DOCTYPE svg PUBLIC "-//W3C//DTD SVG 1.1//EN" "http://www.w3.org/Graphics/SVG/1.1/DTD/svg11.dtd"><svg width="100%" height="100%" viewBox="0 0 782 782" version="1.1" xmlns="http://www.w3.org/2000/svg" xmlns:xlink="http://www.w3.org/1999/xlink" xml:space="preserve" xmlns:serif="http://www.serif.com/" style="fill-rule:evenodd;clip-rule:evenodd;stroke-linejoin:round;stroke-miterlimit:2;"><rect id="Artboard2" x="0" y="0" width="781.589" height="781.589" style="fill:none;"/><path d="M526.362,315.265c3.171,-2.975 7.357,-4.631 11.705,-4.631c0.266,-0 0.538,-0 0.816,-0c7.019,-0 13.326,4.287 15.909,10.815c2.582,6.527 0.915,13.969 -4.204,18.772c-34.247,32.125 -88.812,83.31 -124.472,116.761c-19.862,18.631 -50.78,18.631 -70.642,-0c-35.66,-33.451 -90.226,-84.636 -124.472,-116.761c-5.12,-4.803 -6.787,-12.245 -4.204,-18.772c2.582,-6.528 8.889,-10.815 15.909,-10.815c0.277,-0 0.549,-0 0.815,-0c4.349,-0 8.534,1.656 11.705,4.631c19.636,18.419 92.581,86.845 122.568,114.974c7.31,6.858 18.689,6.858 25.999,0c29.987,-28.129 102.933,-96.555 122.568,-114.974Z" style="fill:#fff;"/></svg>