<?xml version="1.0" encoding="UTF-8" standalone="no"?><!DOCTYPE svg PUBLIC "-//W3C//DTD SVG 1.1//EN" "http://www.w3.org/Graphics/SVG/1.1/DTD/svg11.dtd"><svg width="100%" height="100%" viewBox="0 0 3259 3259" version="1.1" xmlns="http://www.w3.org/2000/svg" xmlns:xlink="http://www.w3.org/1999/xlink" xml:space="preserve" xmlns:serif="http://www.serif.com/" style="fill-rule:evenodd;clip-rule:evenodd;stroke-linejoin:round;stroke-miterlimit:2;"><rect id="Artboard2" x="0" y="0" width="3256.62" height="3256.62" style="fill:none;"/><path d="M1063.45,1943.02c-13.212,12.396 -30.654,19.296 -48.771,19.296l-3.4,-0c-29.245,-0 -55.525,-17.863 -66.287,-45.063c-10.758,-27.196 -3.813,-58.204 17.517,-78.217c142.695,-133.854 370.05,-347.125 518.633,-486.504c82.758,-77.629 211.583,-77.629 294.342,0c148.583,139.379 375.941,352.65 518.633,486.504c21.333,20.013 28.279,51.021 17.517,78.217c-10.759,27.2 -37.038,45.063 -66.288,45.063l-3.396,-0c-18.121,-0 -35.558,-6.9 -48.771,-19.296c-81.816,-76.746 -385.754,-361.854 -510.7,-479.059c-30.458,-28.575 -77.87,-28.575 -108.329,0c-124.946,117.205 -428.887,402.313 -510.7,479.059Z" style="fill:#fff;"/></svg>